<svg xmlns="http://www.w3.org/2000/svg" width="950.206" height="935.01"><defs><linearGradient id="b" x1=".875" y1=".072" x2=".474" y2="1" gradientUnits="objectBoundingBox"><stop offset="0" stop-color="#fdfdff"/><stop offset="1" stop-color="#fcfbff"/></linearGradient><linearGradient id="c" x1="1" y1=".602" x2="0" y2=".536" gradientUnits="objectBoundingBox"><stop offset="0" stop-color="#d1c2f7"/><stop offset="1" stop-color="#c7b5f5"/><stop offset="1" stop-color="#f8f6fe"/></linearGradient><clipPath id="a"><path data-name="Rectangle 401" fill="#fff" d="M0 0h950.205v935.01H0z"/></clipPath></defs><g data-name="Group 6459"><g data-name="fare estimate" transform="translate(.001)" clip-path="url(#a)"><g data-name="Group 6464"><g data-name="Layer 2"><g data-name="Group 6461"><path data-name="Path 6774" d="M365.491 700.482c43.3-150.173 187.9-356.951 43.3-426.972-67.1-36.763-179.321-41.962-254.133-28.328C75.945 260.258 34.7 294.294 19.673 368.061-7.069 514.6-30.538 783.846 120.781 845.049c72.788 33.577 141.475 27.168 176.184 2.09 38.216-26.439 42.497-71.564 68.526-146.657z" transform="translate(736.982 65.371)" fill="url(#b)"/></g><g data-name="Group 6462"><path data-name="Path 6775" d="M131.924 242.434c2.547 11.571 9.831 12.437 20.26 11.278 10.4-1.351 23.965-4.74 38.775-6.066 14.946-1.631 27.2-2.421 38.775-6.754s22.234-12.016 31.148-25.295c8.4-12.959 11.8-30.047 3.426-44.2-7.883-13.954-27.544-24.976-53.647-20.974-26.053 3.287-49.8 21.548-63.263 40.942-13.971 19.535-17.651 40.2-15.474 51.069z" transform="translate(772.164 41.041)" fill="url(#b)"/></g><g data-name="Group 6463"><path data-name="Path 6776" d="M906.288 41.812C904.021 4.7 879.317-.3 842.5 0c-36.928.93-85.84 7.2-137.935 6.665-52.833.369-95.721-1.084-138.368 8.792-42.121 9.608-84.042 30.583-122.486 69.343-36.6 37.916-58.169 90.412-37.2 137.459 19.355 46.243 81.231 87.033 174.023 82.827 92.271-1.988 185.076-51.633 242.851-108.16 59.625-56.753 84.23-120.326 82.903-155.114z" transform="translate(-204.963 .01)" fill="url(#b)"/></g><path data-name="Path 6777" d="M643.725 53.573c-121.239-26.76-163.2 2.931-200.8 53.515-35.655 51.109-71.387 120.228-123.406 193.78C215.479 447.882 93.743 477.267 80.651 543.491 67.23 608.763 91.513 674.1 175.354 757.929c83.026 80.528 227.465 161.006 400.217 170.258 168.446 10.831 485.957-87.441 569.835-217.608 90.5-127.632 28.8-294.358-91.685-418.843-119.19-127.1-297.173-211.926-409.996-238.163z" transform="translate(-78.362 11.949)" opacity=".12" fill="url(#c)"/></g></g></g><g data-name="Group 6456"><path data-name="Path 6571" d="M556.328 710.911c-13.808 5.532-37.079 13.406-25.3 27.25s21.731 14.282 40.336 5.049 38.01-13.612 27.279-24.157-20.794-16.756-42.315-8.142z" fill="#f3effd"/><path data-name="Path 6572" d="M721.89 775.893c-16.225-10.841-16.482-3.122-37.868 8.422-11.447 6.176-24.46 7.832-32.314 16.727-5.422 6.141-.167 14.569 9.424 21.831 20.539 15.555 32.556 18.4 52.289 5.216 10.574-7.065 22.794-13.129 29.569-17.04 12.684-7.326 11.276-12.149 1.843-19.427-6.161-4.755-18.764-12.939-22.943-15.729z" fill="#f3effd"/><path data-name="Path 6573" d="M65.99 739.066c18.081-12.082 18.37-3.479 42.2 9.385 12.755 6.885 27.256 8.731 36.013 18.644 6.041 6.84.187 16.234-10.5 24.331-22.887 17.333-36.28 20.5-58.272 5.812-11.785-7.874-25.4-14.633-32.955-18.992-14.134-8.164-12.562-13.538-2.052-21.65 6.86-5.3 20.91-14.418 25.566-17.53z" fill="#f3effd"/><path data-name="Path 6574" d="M294.332 540.145c-18.818-13.364-53.719-15.2-77.95-4.1s-28.619 30.939-9.8 44.306 53.72 15.2 77.95 4.1 28.619-30.939 9.8-44.306z" fill="#a8aae1"/><path data-name="Path 6575" d="M416.349 631.147a161.5 161.5 0 00-31.58-26.5 280.581 280.581 0 00-39.154-20.8l-52.737 29.469-14.163 7.868c1.418.209 10.8 1.543 12.655 2.03 7.523 1.975 20.136 6.331 21.653 10.007.242.583 5.554-2.958 5.928-2.51.216.271.474.525.657.805a9 9 0 01.986 1.959c.032.084.071.164.1.245a8.271 8.271 0 01.435 2.307 8.709 8.709 0 01-.412 3.064 10.73 10.73 0 01-.735 1.811v.01a15.167 15.167 0 01-2.874 3.676 20.675 20.675 0 01-1.878 1.64 22.312 22.312 0 01-2.771 1.9 31.79 31.79 0 01-3.924 1.9c-.87.364-1.788.648-2.7.947-.457.145-.9.319-1.36.451a43.938 43.938 0 01-3.834.9c-.1.019-.2.045-.3.061a45.543 45.543 0 01-4.269.58 43.6 43.6 0 01-4.926.164 40.007 40.007 0 01-3.815-.267c-.193-.022-.383-.051-.577-.077a34.596 34.596 0 01-3.164-.548c-.522-.116-1.012-.274-1.514-.416-.722-.2-1.453-.387-2.129-.641a21.892 21.892 0 01-3.425-1.563s-10.107-5.851-14.153-15.087l-29.74 17.172-1.579.912-12.484 2.458-18.284 10.558 89.207 51.671 4.562 2.632c2.964-5.683 8.46-11.2 16.55-15.87 12.049-6.956 32.085-11.025 46.78-11.37a39.266 39.266 0 01-7.4-4.2c-2.916-2.577-10.909-12.52-.509-16.454a27.288 27.288 0 015.989-1.263c7.948-1.1 16.141-.113 21.766 3.135 0 0 5.67 3.315 9.723 12.542l48.591-27.717c-1.218-1.952-12.24-20.017-19.192-27.591z" fill="#f3effd"/><path data-name="Path 6576" d="M352.516 757.156c-18.821-13.367-53.719-15.2-77.953-4.1s-28.616 30.939-9.8 44.306 53.72 15.2 77.95 4.1 28.621-30.939 9.803-44.306z" fill="#f3effd"/><path data-name="Path 6577" d="M455.126 692.76l-43.893 25.342c-.026-.061-.042-.129-.071-.19-4.088-9.317-14.282-15.21-14.282-15.21-5.68-3.28-13.947-4.279-21.969-3.167-2.052.287-6.224 9.008-8.725 10.451-5.016 2.9-7.851 6.485-8.6 10.039-.673 3.2.387 6.353 3.325 8.953a16.373 16.373 0 002.671 1.949 50.3 50.3 0 004.8 2.291c13.654-.316 17.906 1.128 28.1 5.764 21.141 9.623 12.887 24.791-10.471 38.278a83.1 83.1 0 01-24 8.947c1.791.828 74.248 32.1 74.248 32.1s36.5-6.766 47.727-11.83l1.385-.8 2.6-1.5c14.778-10.081 33.19-36.477 33.19-36.477s-40.755-34.472-66.035-74.94z" fill="#f3effd"/><path data-name="Path 6578" d="M367.214 549.585a9.676 9.676 0 00-1.182-1.691 13.111 13.111 0 00-3.576-3.025s-9.269-5.342-23.918-7.494l-.055-.01 10.461-6.044c-13.367-5.081-89.516-33.809-113.341-37.778-3.7-.615-9.356-.522-15.906.474.374-5.029-4.71-10.722-13.567-16.412-15.036-9.656-30.62-9.472-39.94-6.524s-20.812 7.906-26.557 9.61c-19.553 5.8-24.688 13.8-13.512 35.1 5.67 10.806 13.712 13.9 21.312 13.7 9.6 5.351 24.221 11.176 38.758 8.048 7.246 4.4 15.249 9.027 22.71 12.842 1.524.931 3.009 1.84 4.475 2.738 2.864-4.739 7.7-9.3 14.482-13.219 21.244-12.265 53.378-13.6 71.774-2.977 7.429 4.288 11.424 9.878 12.217 15.816l2.255-1.3.016.032a26.113 26.113 0 004.649 6.933 33.917 33.917 0 0015.616 9.5c8.087 2.094 18.361.251 25.7-3.988a44.774 44.774 0 004.047-3.035c3.836-3.596 4.925-7.717 3.082-11.296z" fill="#f3effd"/><path data-name="Path 6579" d="M655.877 390.875c-5.744-1.7-17.233-6.663-26.557-9.611s-24.9-3.128-39.94 6.527-19.331 19.34-4.195 25.732c-31.029-9.936-86.018-6.443-86.018-6.443s-.722-.277-2-.76l-10.451 6.034c14.649 2.152 23.918 7.494 23.918 7.494a12.823 12.823 0 012.155 1.572 11.782 11.782 0 011.421 1.453 9.673 9.673 0 011.182 1.691 7.765 7.765 0 01.812 2.687c.01.084 0 .161.01.245a7.891 7.891 0 01-.222 2.59 8.5 8.5 0 01-.074.261 10.309 10.309 0 01-1.208 2.648c-.032.048-.061.1-.093.148a14.634 14.634 0 01-2.3 2.713 20.745 20.745 0 01-2.587 2.03c-.493.335-.912.689-1.463 1.005a30.976 30.976 0 01-3.492 1.695c-.364.151-.738.284-1.108.425-.909.342-1.83.651-2.774.921-.393.116-.783.232-1.179.335-1.234.312-2.478.58-3.744.78-.077.01-.155.032-.232.045-1.324.2-2.655.312-3.979.38-.435.023-.86.026-1.292.035q-1.406.029-2.787-.039c-.441-.023-.876-.042-1.311-.077a36.628 36.628 0 01-3.318-.438c-.158-.032-.325-.042-.483-.074-.457-.093-.883-.232-1.318-.361-.38-.093-.754-.2-1.124-.306a24.432 24.432 0 01-2.184-.738 18.062 18.062 0 01-2.658-1.218s-.222-.129-.58-.358c-.145-.09-.306-.2-.5-.322l-.177-.119c-.151-.1-.309-.209-.48-.329-.1-.071-.2-.142-.316-.222a40.38 40.38 0 01-.49-.354c-.132-.1-.258-.19-.4-.293-.174-.129-.351-.271-.535-.412-.148-.116-.293-.226-.448-.351a28.94 28.94 0 01-.57-.467c-.161-.132-.319-.261-.483-.4a32.99 32.99 0 01-.657-.58c-.145-.129-.287-.251-.432-.387a33.527 33.527 0 01-.85-.812l-.277-.264a32.957 32.957 0 01-1.144-1.2 29.3 29.3 0 01-2.445-3.07 9.498 9.498 0 01-.19-.277 23 23 0 01-2.009-3.593l-2.271 1.311c1.15 8.76-4.723 18.28-17.368 25.584a77.492 77.492 0 01-25.229 8.773l3.876 2.239 17.807 10.281c-8.267 8.818-9.617 22.214-9.726 28.98a85.462 85.462 0 00-10.155 5.683c-12.143 7.81-13.174 15.365 3.918 24.427s24.408 16.885 45.717 5.992a70.627 70.627 0 0012.939-8.106c9.688-.39 23.532-2.7 36.712-11.192 10.77-6.936 16.292-13.612 19.131-18.9l.026-.019 27.61-15.938c.022.058.039.122.064.184 3.647 8.609 13.1 14.069 13.1 14.069 3.612 2.085 16.428 3.209 17.948 3.074a37.065 37.065 0 0015.039-4.44 21.5 21.5 0 004.266-3.254 13.845 13.845 0 002.642-3.383l-.074-.042a9.724 9.724 0 00.628-1.556l.122-.071c1.421-3.612-1.53-8.615-5.216-10.741 0 0-14.034-6.215-23.963-7.5a6.021 6.021 0 00-.741.3 6.021 6.021 0 01.741-.3c-.139-.019-.267-.045-.406-.064-.1-.016-.216-.023-.319-.039l8.589-4.955 33-19.057 12.027-6.943 2.165-1.25c8.676 1.643 17.652-.593 24.492-13.628 11.173-21.288 6.038-29.288-13.515-35.09z" fill="#f3effd"/><g data-name="Group 6430"><g data-name="Group 6429"><g data-name="Group 6428"><path data-name="Path 6580" d="M356.32 773.19l1.063-11.521-4.62-.129a28.643 28.643 0 00-6.669-6.469c-16.573-11.769-47.305-13.383-68.646-3.608a43.066 43.066 0 00-11.64 7.607l-5.951-.167-1.224 13.032h.052c-.731 6.521 2.516 13.135 10.136 18.544 16.573 11.772 47.305 13.386 68.646 3.612 11.743-5.384 18.158-13.093 18.822-20.9zm-70.766-15.97c15.577-7.136 38.007-5.957 50.1 2.635.567.4 1.07.822 1.572 1.243l-55.894-1.588a36.986 36.986 0 014.223-2.29z" fill="#472e2e"/><path data-name="Path 6581" d="M325.34 772.601c-12.3 5.635-30.011 4.7-39.56-2.081s-7.326-16.85 4.971-22.485 30.011-4.7 39.563 2.081 7.323 16.85-4.974 22.485z" fill="#c5c6eb"/><path data-name="Path 6582" d="M347.277 742.532c-16.573-11.772-47.308-13.386-68.646-3.612s-25.2 27.246-8.628 39.015 47.305 13.386 68.643 3.612 25.202-27.241 8.631-39.015zm-66.838 30.623c-12.1-8.589-9.279-21.341 6.3-28.477s38.007-5.957 50.1 2.635 9.275 21.341-6.3 28.477-38.006 5.957-50.1-2.635z" fill="#634b4b"/><path data-name="Path 6583" d="M336.842 747.314c-12.1-8.592-34.531-9.772-50.1-2.635s-18.4 19.888-6.3 28.477 34.527 9.772 50.1 2.635 18.397-19.888 6.3-28.477zm-50.037 22.926c-9.366-6.653-7.181-16.524 4.878-22.05s29.428-4.61 38.793 2.039 7.181 16.524-4.878 22.05-29.428 4.614-38.793-2.039z" fill="#33211f"/></g><path data-name="Path 6584" d="M332.38 749.356c-10.181-7.233-29.067-8.225-42.179-2.216s-15.484 16.74-5.3 23.973 29.07 8.225 42.179 2.217 15.484-16.742 5.3-23.974zm-39.795-.522a40.594 40.594 0 0121.267-3.209 15.83 15.83 0 01-9.227 7.465c-6.476 1.073-13.451-.709-16.5-1.653a25.237 25.237 0 014.46-2.603zm-5.657 20.046c-5.7-4.7-6.031-10.577-1.115-15.452 3.415 1.308 11.089 4.385 10.96 8.264-1.388 3.366-6.649 5.912-9.845 7.188zm30.89-22.678a27.382 27.382 0 0111.492 4.562c3.222 2.287 4.984 4.981 5.393 7.732-3.5.019-11.25-.264-15.909-2.916-3.539-3.164-1.765-7.432-.976-9.378zm-28.313 24.485a33.059 33.059 0 0114.411-3.924c6.411.735 9.888 5.351 11.518 7.639-9.279 1.701-19.079.325-25.929-3.715zm30.826-6.44c3.972-2.655 10.574-3.27 14.411-3.576-.322 4.2-3.731 8.07-10.049 10.964a34.494 34.494 0 01-5.226 1.872c-.956-2.015-2.219-6.042.864-9.26z" fill="#7d7fd2"/></g><path data-name="Path 6585" d="M312.108 762.375a8.117 8.117 0 01-7.3-.383c-1.765-1.253-1.353-3.112.918-4.153a8.119 8.119 0 017.3.387c1.759 1.249 1.354 3.108-.918 4.149z" fill="#634b4b"/><path data-name="Path 6586" d="M310.378 761.147a3.724 3.724 0 01-3.347-.177c-.805-.573-.619-1.424.422-1.9a3.716 3.716 0 013.344.177c.809.573.619 1.424-.419 1.9z" fill="#7d7fd2"/></g><path data-name="Path 6587" d="M333.166 675.352c-5.409-1.134-9.846-5.164-14.06-9.263-5.454-5.3-10.467-11.018-15.49-16.727-.316.106-.625.225-.944.332-.422.132-.822.293-1.25.412-1.153.335-2.326.6-3.518.828-.09.016-.18.039-.271.055-1.3.245-2.6.416-3.918.532a40.217 40.217 0 01-4.523.151 36.72 36.72 0 01-3.5-.245c-.177-.019-.351-.048-.532-.071a30.76 30.76 0 01-2.9-.506c-.477-.106-.925-.248-1.392-.377-.661-.19-1.331-.358-1.956-.59a20.283 20.283 0 01-3.141-1.437s-9.275-5.367-12.993-13.847l-27.3 15.761-1.446.838-7.819 4.514-16.785 9.691 78.25 45.175 4.188 2.42c2.722-5.219 7.768-10.281 15.194-14.569 11.06-6.386 25.069-9.778 38.558-10.094v-12.748z" fill="#4447bf"/><path data-name="Path 6588" d="M426.214 651.215a119.994 119.994 0 00-15.654-21.027 148.385 148.385 0 00-28.989-24.327 257.2 257.2 0 00-35.945-19.092l-5.135 2.964-2.99 1.727-.764.438-.689.4-7.552 4.359-15.1 8.718-26.236 2.413-.023 12.745h.023c1.3.19 2.548.409 3.76.644l.4.077c1.218.242 2.4.5 3.521.773 1.234.3 2.4.619 3.508.941l.164.045c1.092.322 2.12.651 3.086.976l.168.058a71.847 71.847 0 014.958 1.888l.116.048c1.35.577 2.4 1.076 3.122 1.44l.058.029c.351.177.609.312.789.409l.081.045.226.122a14.342 14.342 0 012.507 1.83 10.515 10.515 0 011.086 1.218c.2.248.435.483.6.738a8.446 8.446 0 01.908 1.8c.026.074.065.148.09.226a7.587 7.587 0 01.4 2.114 8.045 8.045 0 01-.38 2.813 9.418 9.418 0 01-.673 1.662 26.346 26.346 0 01-2.642 3.386 18.6 18.6 0 01-1.724 1.5 21.138 21.138 0 01-2.542 1.749 29.69 29.69 0 01-3.019 1.463c2.3 2.658 4.6 5.319 6.94 7.948 6.357 7.139 13.841 16.711 23.728 18.142 1.111-2.655 3.45-5.258 7.21-7.426a33.164 33.164 0 017.507-3.086 39.99 39.99 0 015.5-1.16c7.3-1.012 14.817-.1 19.978 2.877 0 0 9.272 5.361 12.993 13.834l39.889-23.029a171.64 171.64 0 01-3.259-5.412z" fill="#4e51c2"/><g data-name="Group 6431"><path data-name="Path 6589" d="M345.615 675.588a45.959 45.959 0 01-4.365-2.084 14.83 14.83 0 01-2.429-1.772c-12.336 1.372-24.566 4.974-34.624 10.783-7.848 4.53-13.328 9.826-16.521 15.316l4.188 2.42c2.722-5.219 7.768-10.281 15.194-14.569 11.059-6.389 25.07-9.781 38.557-10.094z" fill="#5457c4"/><path data-name="Path 6590" d="M316.709 625.818c.4-.229.8-.454 1.182-.673l.786-.451c.461-.261.9-.515 1.334-.76.235-.135.47-.267.7-.4.425-.245.841-.483 1.228-.7l.583-.335c.213-.122.419-.238.615-.354 1.337-.764 2.3-1.314 2.842-1.63l.522-.3-.116-.061-.013-.01c-.7-.383-1.4-.773-2.11-1.16l-.148-.084c-.093.058-2.043 1.2-5.068 2.961l-.39.226c-.235.135-.47.274-.715.416l-1.218.709a8.051 8.051 0 01-.38 2.816z" fill="#696ccb"/><path data-name="Path 6591" d="M328.502 583.907l-33.029 19.07c3.9 2.188 7.79 4.362 11.637 6.5l.535.3c3.924 2.188 7.806 4.343 11.592 6.434l36.222-17.765s-11.246-6.807-26.957-14.539z" fill="#c5c6eb"/><path data-name="Path 6592" d="M356.624 650.214q-1.841-1.025-4.121-2.287l-.383-.213-1.247-.689-1.189-.657c-.583-.322-1.189-.657-1.8-1l-.535-.3c-.754-.416-1.537-.847-2.333-1.289l-.309-.171-2.436-1.34-.387-.213c-1.6-.883-3.286-1.811-5.013-2.758l-1.282-.706-1.836-1.008-1.076-.59c-1.872-1.028-3.8-2.084-5.764-3.161-.338-.187-.677-.367-1.018-.554-.818-.451-1.65-.905-2.481-1.36l-.9-.493q-3.2-1.749-6.5-3.55l-.341-.187v.006a13.941 13.941 0 01-2.639 3.376l.834.445 2.249 1.2 1.053.564 6.882 3.666.941.5c3.525 1.878 6.859 3.657 9.916 5.284l.722.383c5 2.664 9.227 4.91 12.249 6.518.6.322 1.17.622 1.672.889.6.316 1.134.6 1.582.841a40.472 40.472 0 015.49-1.146z" fill="#696ccb"/><path data-name="Path 6593" d="M388.542 612.342c-11.718-13.631-38.435-26.2-51.268-32.234a77.77 77.77 0 00-1.224-.561l-7.552 4.359c15.716 7.732 26.956 14.54 26.956 14.54l-36.222 17.764c1.653.915 3.264 1.8 4.878 2.69h.01l2.258 1.253c1.907 1.047 3.8 2.084 5.635 3.086q3.417 1.87 6.627 3.605c.406.219.789.425 1.192.644 1.8.973 3.57 1.923 5.261 2.829l.822.438c1.817.973 3.576 1.9 5.242 2.784l.387.2c1.814.954 3.541 1.856 5.152 2.684 1.3.612 14.81 6.782 24.137 9.063 8.354 2.049 27.25 1.627 32.611 1.366-2.563-3.997-14.525-22.454-24.902-34.51zm.316 30.388c-14.611-2.094-36.209-14.772-40.932-17.385-5.906-3.267-12.1-6.17-6.9-9.188 5.941-3.444 17.391-9.056 22.575-10.506 2.587-.728 4.249-1.208 10.5 2.958 9.137 6.089 22.974 21.924 25.4 26.38s-.911 9.133-10.644 7.741z" fill="#7d7fd2"/><path data-name="Path 6594" d="M338.82 671.731c-2.674-2.365-3.634-5.232-3.025-8.145-14.791 1.595-28.251 4.765-37.975 5.657-9.636.886-40.117-11.708-71.61-26.283l-16.785 9.691 78.25 45.179c3.193-5.49 8.673-10.786 16.521-15.316 10.058-5.808 22.288-9.41 34.624-10.783z" fill="#696ccb"/><path data-name="Path 6595" d="M289.195 638.924a37.386 37.386 0 01-3.5-.245c-.177-.019-.351-.048-.532-.071a31.758 31.758 0 01-2.9-.506c-.48-.106-.928-.251-1.388-.38-.664-.187-1.334-.354-1.956-.586a20.184 20.184 0 01-3.144-1.437s-9.275-5.371-12.993-13.847l-27.3 15.761c9.391 4.491 16.808 7.984 19.73 9.24 10.654 4.572 13.083 3.273 22.124-1.556 1.15-.615 2.4-1.282 3.773-2 2.184-1.131 4.99-2.658 8.093-4.375z" fill="#7577cf"/><path data-name="Path 6596" d="M317.937 622.503l.715-.416.39-.226c3.032-1.766 4.974-2.906 5.068-2.961a3684.65 3684.65 0 01-16.47-9.124l-.535-.3a5421.025 5421.025 0 01-11.637-6.5l-8.328 4.81h.023a6.461 6.461 0 015.19.055l2.5 1.44c1.234.3 2.4.615 3.508.941l.164.045q1.638.483 3.086.976l.168.058c1.933.657 3.592 1.3 4.958 1.885l.116.052c1.35.577 2.4 1.076 3.122 1.44l.061.029c.348.177.606.312.786.409l.081.045.226.122a14.342 14.342 0 012.507 1.83 10.513 10.513 0 011.086 1.218c.2.248.435.483.6.738a8.5 8.5 0 01.908 1.8c.026.077.065.151.09.229a7.586 7.586 0 01.4 2.113l1.217-.708z" fill="#7577cf"/><path data-name="Path 6597" d="M289.196 638.924c-3.1 1.717-5.909 3.244-8.093 4.375a340.849 340.849 0 00-3.773 2c-9.04 4.829-11.469 6.128-22.124 1.556-2.922-1.256-10.339-4.749-19.73-9.24l-1.442.837c9.465 4.527 16.956 8.054 19.9 9.321 11.853 5.084 15.187 4.211 24.453-.738 1.14-.612 2.381-1.276 3.75-1.985 2.941-1.524 7.059-3.766 11.585-6.276a40.21 40.21 0 01-4.526.15z" fill="#696ccb"/><path data-name="Path 6598" d="M343.617 654.46a33.255 33.255 0 017.507-3.09c-.454-.242-.973-.516-1.582-.841-.509-.271-1.063-.564-1.672-.889-3.022-1.608-7.246-3.853-12.249-6.518-.242-.129-.477-.255-.722-.383-3.057-1.63-6.389-3.4-9.917-5.284l-.941-.5-6.882-3.666-1.053-.564-2.249-1.2c-.28-.148-.554-.3-.834-.445a19.62 19.62 0 01-1.724 1.5 21.133 21.133 0 01-2.542 1.749 30 30 0 01-3.6 1.743c-.8.332-1.643.593-2.481.867-.422.135-.822.3-1.25.416-1.15.335-2.326.6-3.518.828-.09.016-.18.039-.271.055-1.3.242-2.6.416-3.918.532-4.526 2.51-8.644 4.752-11.585 6.276a268.74 268.74 0 00-3.75 1.985c-9.266 4.949-12.6 5.822-24.453.738-2.945-1.266-10.435-4.794-19.9-9.321l-7.819 4.511c31.493 14.575 61.974 27.169 71.61 26.283 9.723-.892 23.184-4.063 37.975-5.657.677-3.226 3.258-6.493 7.82-9.125z" fill="#7577cf"/><path data-name="Path 6599" d="M426.214 638.464a120.025 120.025 0 00-15.651-21.025 148.4 148.4 0 00-28.989-24.331 257.528 257.528 0 00-35.943-19.089l-5.135 2.964-2.99 1.727 1.1.5c12.919 6.079 39.8 18.728 51.68 32.53 11.579 13.464 26.509 35.243 26.654 35.471l.454.715-1.392.084c-1.024.061-22.14 2.5-36.377-.828-10.152-2.371-23.2-10.065-23.8-10.416l.738-.406.129.061a739.445 739.445 0 01-5.145-2.681l-.39-.206q-2.508-1.324-5.238-2.78l-.828-.441q-2.542-1.363-5.258-2.829c-.293-.161-.564-.3-.863-.467l-.329-.177a1561.683 1561.683 0 01-6.627-3.605c-1.836-1-3.724-2.036-5.632-3.083l.116.061c-.023.013-.232.135-.522.3-.544.316-1.514.873-2.842 1.63l-.615.354-.583.335c-.393.222-.8.454-1.228.7l-.7.4c-.432.248-.87.5-1.334.76-.255.148-.522.3-.786.451-.393.222-.773.441-1.182.673l-.371.209a9.514 9.514 0 01-.673 1.662l.341.187q3.291 1.793 6.5 3.55l.9.493c.831.454 1.662.909 2.481 1.36.341.184.68.367 1.018.554 1.965 1.076 3.892 2.133 5.764 3.161l1.076.59 1.844 1.015 1.282.706c1.727.95 3.405 1.872 5.013 2.758l.387.213c.828.457 1.643.905 2.436 1.34l.309.171 2.333 1.289.535.3c.612.338 1.224.677 1.8 1l1.189.657 1.247.689.383.213c1.517.841 2.9 1.6 4.121 2.287 7.3-1.012 14.817-.1 19.981 2.877 0 0 9.269 5.361 12.99 13.834l39.892-23.034c-1.124-1.8-2.223-3.61-3.27-5.433z" fill="#7577cf"/><path data-name="Path 6600" d="M292.353 607.844a6.461 6.461 0 00-5.19-.055c1.3.19 2.548.409 3.76.644l.4.077c1.218.242 2.4.5 3.522.773z" fill="#c5c6eb"/><path data-name="Path 6601" d="M416.935 647.214c-.145-.229-15.074-22.008-26.654-35.471-11.882-13.8-38.761-26.451-51.68-32.53a65.298 65.298 0 00-1.1-.5l-.764.438-.689.4c.422.19.847.383 1.224.561 12.832 6.038 39.55 18.6 51.268 32.234 10.377 12.056 22.343 30.513 24.9 34.515-5.361.261-24.257.683-32.611-1.366-9.327-2.281-22.836-8.451-24.137-9.063.264.135.515.264.776.4l-.783-.4-.129-.061-.738.406c.593.351 13.644 8.045 23.8 10.416 14.237 3.325 35.352.889 36.377.828l1.392-.084z" fill="#696ccb"/><path data-name="Path 6602" d="M347.925 625.345c4.723 2.613 26.322 15.29 40.932 17.385 9.733 1.392 13.074-3.286 10.648-7.742s-16.263-20.291-25.4-26.38c-6.254-4.166-7.916-3.686-10.5-2.958-5.184 1.45-16.634 7.062-22.575 10.506-5.206 3.02.99 5.92 6.895 9.189z" fill="#c5c6eb"/></g><path data-name="Path 6603" d="M209.427 665.403v-12.75l82.438 47.6v12.748z" fill="#4e51c2"/><path data-name="Path 6604" d="M429.483 643.895l-39.887 23.029v12.748l39.887-23.028z" fill="#4447bf"/><path data-name="Path 6605" d="M505.62 758.074c-12.188-11.337-35.613-34.7-51.97-60.885l-39.924 23.047c-.023-.058-.039-.119-.064-.174-3.718-8.473-12.99-13.834-12.99-13.834-5.164-2.983-12.684-3.889-19.981-2.88a40.821 40.821 0 00-5.5 1.16c-1.028.293-2.014.657-3 1.028h-12.33l-.11 12.665a7.037 7.037 0 00-.01.9v.106l.023.006a8.766 8.766 0 003.119 5.654 14.944 14.944 0 002.429 1.772 46.446 46.446 0 004.365 2.084c12.42-.29 24.4 2.027 33.216 7.117 18.4 10.622 16.093 29.173-5.152 41.438a75.614 75.614 0 01-21.827 8.138q2.445 1.126 4.926 2.255c26.386 11.956 55.643 23.693 55.643 23.693s33.2-6.153 43.407-10.757l1.26-.728 2.361-1.366c13.444-9.166 30.188-33.171 30.188-33.171v-12.749z" fill="#4447bf"/><g data-name="Group 6432"><path data-name="Path 6606" d="M409.151 719.551c-12.02-6.94-29.244-9.321-46.264-7.429a14.945 14.945 0 002.429 1.772 46.436 46.436 0 004.365 2.084c12.42-.29 24.4 2.023 33.216 7.117 18.4 10.619 16.093 29.173-5.152 41.438a75.616 75.616 0 01-21.827 8.138q2.445 1.126 4.926 2.255a84.107 84.107 0 0022.5-8.673c23.943-13.824 26.542-34.733 5.807-46.702z" fill="#5457c4"/><path data-name="Path 6607" d="M375.194 691.761l1.869.992s4-.329 6.382-.619c-.8-.442-1.73-.963-2.755-1.534a40.311 40.311 0 00-5.496 1.161z" fill="#696ccb"/><path data-name="Path 6608" d="M430.07 760.474c-4.868-3.686 21.286-26-11.328-46.458-18.39-11.534-39.75-12.1-58.878-10.036-.612 2.912.348 5.78 3.022 8.144 17.021-1.891 34.244.49 46.264 7.429 20.735 11.969 18.135 32.878-5.806 46.7a84.1 84.1 0 01-22.5 8.673c26.386 11.953 55.643 23.693 55.643 23.693s33.2-6.154 43.407-10.761l1.26-.725c-15.758-7.902-47.444-23.908-51.084-26.659z" fill="#696ccb"/><path data-name="Path 6609" d="M413.662 707.315c-3.718-8.473-12.99-13.834-12.99-13.834-5.164-2.983-12.684-3.889-19.981-2.88 1.021.57 1.959 1.092 2.755 1.534-2.387.29-6.382.619-6.382.619s-.673-.354-1.869-.992a33.494 33.494 0 00-7.51 3.086c-4.562 2.635-7.143 5.9-7.819 9.13 19.128-2.065 40.488-1.5 58.878 10.036 32.614 20.458 6.46 42.772 11.328 46.458 3.64 2.754 35.326 18.76 51.084 26.663l2.365-1.366c13.438-9.166 30.185-33.174 30.185-33.174s-37.069-31.35-60.059-68.15l-39.921 23.048c-.022-.062-.038-.123-.064-.178z" fill="#7577cf"/><path data-name="Path 6610" d="M511.762 755.136l-27.85-6.532 22.5 12.989z" fill="#c5c6eb"/></g><path data-name="Path 6611" d="M436.489 811.368v-12.749l-60.569-25.947v12.748z" fill="#4e51c2"/><g data-name="Group 6436"><path data-name="Path 6612" d="M579.269 483.803s-3.489 19.849.56 25.085c2.143 2.771 14.179 13.312 17.575 14.131-.847-8.471-18.135-39.216-18.135-39.216z" fill="#c2c3ea"/><g data-name="Group 6433"><path data-name="Path 6613" d="M559.327 592.128c-1.476-3.924 24.063-6.911 24.063-6.911s.051 19.053.744 27.072c1.047 12.1.809 17.894-2.684 34.138-1.55 7.207-3.492 34.5-2.971 44.112.76 14.079 7.252 20.732 9.453 24.212s-6.183 6.762-11.486 1.691-5.857-6.063-8.85-7.652-1.981-5.393-1.766-13.338c.171-6.147-2.5-26.621-3.518-39.75-1.447-18.631 2.639-19.041 2.355-28.461-.533-17.729-4.379-32.552-5.34-35.113z" fill="#c5c6eb"/><path data-name="Path 6614" d="M563.384 699.522l.026-.1a4.285 4.285 0 01.164-.49l.006.01a11.7 11.7 0 012.252-3.486s1.257 11.27 7.884 15.919c7.394 5.19 10.7 5.967 14.218 3.38a73.977 73.977 0 005.857 7.165c2.184 2.426.351 4.858-6.1 4.4-3.405-.245-8.28-1.985-10.973-5.429-2.832-3.618-5.023-7.519-7.665-9.884a91.593 91.593 0 01-1.124-1.021v.007c-.2 2.983-.1 4.891-.251 7.052-.622.989-1.582.751-2.333 0-.435-2.381.129-4.568-1.2-8.956-1.419-4.665-1.048-7.439-.761-8.567z" fill="#888ad6"/></g><path data-name="Path 6615" d="M559.011 626.89s-3.624 26.657-5.47 36.3-6.82 40.755-6.208 48.739c.419 5.438 2.571 12.784 3.911 17.333 1.34 4.533-.461 7.848-3.521 8.792-5.529 1.7-12.626-17.146-12.214-25.842.615-13.009-3.425-48.455-2.126-56.4s4.03-12.732 4.849-17.1c.7-3.744-2.407-19.807-2.407-19.807z" fill="#c2c3ea"/><path data-name="Path 6616" d="M533.891 716.945s.5 5.371.644 8.064.483 5.026.483 5.026 2.178 1.743 2.745-.667a24.128 24.128 0 00-3.872-12.423z" fill="#888ad6"/><path data-name="Path 6617" d="M551.227 728.813a96.044 96.044 0 012.442 9.346c.6 2.722.132 6.241-2.684 6.65-7.191 1.041-9.346-3.705-10.777-6.65-1.807-3.721-3.7-13.618-5.4-18.628-2.906-5.931.747-8.622.747-8.622s.2 7.71 2.742 13.673c3.4 7.974 6.073 9.685 9.572 9.781 3.826.108 3.358-5.55 3.358-5.55z" fill="#888ad6"/><path data-name="Path 6618" d="M591.655 633.888c-3.2 2.155-7.942-.973-11.653 9.614-2.948 8.405-17.607 6.617-24.959 3.885-13.315-4.945-27.462-4.253-31.525-6.643-2.519-11.908-1.753-38.394.451-51.819 2.69-16.392 7.536-27.54 11.515-32.8.029-.039 12.413-5.458 17.294-5.535 9-.145 19.044 2.271 27.556-1.215a.708.708 0 01.989.47.32.32 0 01.351.255c4.088 15.271 12.191 59.686 9.981 83.788z" fill="#888ad6"/><path data-name="Path 6619" d="M570.059 509.412c-7.59-13.5-12.275-28.09-3.106-32.118 5.577-2.452 7.249-4.643 11.1.541 3.409 4.591 8.435 12.014 11.537 19.869-4.437 6.58-12.324 9.952-19.531 11.708z" fill="#a8aae1"/><path data-name="Path 6620" d="M579.27 533.215a132.424 132.424 0 002.4 16.882c-5.674 13.641-35.317 9.64-44.138 6.021 1.15-6.766 4.066-25.091 3.737-31.486 0 0-14.672-16.234-10.513-32.794 1.256-5.016 13.158-10.438 13.158-10.438l16.644-9.13s1.2-.3 2.938-.609c2.61 2.887 7.739 10.561 10.519 13.741 2.684 3.067 10.58 13.7 8.167 23.744-2.052 8.569-3.132 19.839-2.912 24.069z" fill="#fff"/><path data-name="Path 6621" d="M579.845 526.281c-.441 10.332 2.3 24.953 4.024 32.942-14.089 13.193-35.017 9.72-50.182-.825 1.82-8.47 3.989-21.579 2.558-31.1-2.887-19.224-5.593-37.086-5.171-37.814 2.761-4.794 15.487-12.481 15.487-12.481h3.918l11.315-6.311s1.2-.3 2.938-.609c2.61 2.89 8.067 10.31 10.522 13.747 4.182 5.851 10.587 13.705 8.174 23.754-2.064 8.574-3.408 14.464-3.583 18.697z" fill="#dcddf3"/><path data-name="Path 6622" d="M546.555 486.757s6.437 3.65 10.954 5.69 11.334 5.38 11.334 5.38 1.15-8.9-.483-15.487-1.408-8.177-2.11-8.312-8.551 0-8.551 0z" fill="#a8aae1"/><path data-name="Path 6623" d="M578.518 515.795a59.5 59.5 0 00-13.854 4.562 77.13 77.13 0 01-10.912 4.572s4.829.722 12.381-1.392 11.506-4.752 12.385-7.742z" fill="#a8aae1"/><path data-name="Path 6624" d="M565.207 492.447c-2.187-1.479-7.5-3.038-10.7-5.132-3-1.968-6.263-6.327-7.951-10.31.441-3.637 2.552-9.623.651-17.742 5.454-2.445 15.58 12.571 15.58 12.571a42.043 42.043 0 001.527 11.018c.348.545.893 6.431.893 9.595z" fill="#a5a7e0"/><path data-name="Path 6625" d="M571.373 436.768s12.613 6.366 9.8 27.849c-.451 3.444-5.193 10.986-6 14.044-1.672 6.373 5.9 7.5 5.9 7.5a9.431 9.431 0 01-10.551-.2c-6.721-4.249-7.12-18.193-9.311-20.255-4.413-4.159 10.162-28.938 10.162-28.938z" fill="#33211f"/><path data-name="Path 6626" d="M548.631 440.731c5.2-4.836 18.38-7.523 24.595 5.757 6.521 13.928-4.762 33.236-12.02 30.858-4.066-1.331-12.858-6.614-15.915-13.982-3.439-8.293-.701-18.876 3.34-22.633z" fill="#c2c3ea"/><path data-name="Path 6627" d="M560.384 451.633s-6.15 2.577-9.23 14.772c-1.314 5.2 3.235 17.52 6.369 24.063 2.316 4.839-.892 17.565-9.42 14.063 6.94-2.039-2.362-13.718-7.059-21.679-2.136-3.618-3.557-9.91-4.175-12.768-3.009-13.87.873-23.5 5.093-30.958 3.741-6.608 12.906-4.746 12.906-4.746s11.141-10.583 20.313 5.3c4.137 7.165 1.714 11.624 0 14.295a48.954 48.954 0 01-14.797-2.342z" fill="#33211f"/><path data-name="Path 6628" d="M541.727 480.671l-8.963 6.659s-3.257-4.726-.454-8.486c3.492-4.681 3.615-15.133 3.615-15.133z" fill="#33211f"/><path data-name="Path 6629" d="M546.067 580.181s-2.143 11.908-3.3 28.844a309.589 309.589 0 000 35.136l5.88 1.547v-36.683a184.218 184.218 0 00-2.58-28.844z" fill="#6669ca"/><path data-name="Path 6630" d="M579.714 572.514s1.427 18.119 2.925 28.947 0 36.783 0 36.783a5.012 5.012 0 013.048-2.555c2.242-.68 3.035-.825 3.035-.825s-1.447-22.082-3.328-35.385a184.856 184.856 0 00-5.68-26.965z" fill="#6669ca"/><path data-name="Path 6631" d="M563.023 588.951s-2.391 18.312-1.65 31.251 2.094 17.952 2.094 17.952a83.846 83.846 0 001.469-19.585c-.447-11.041-1.913-29.618-1.913-29.618z" fill="#6669ca"/><path data-name="Path 6632" d="M535.86 576.203s-4.385 15.429-5.48 26.773-.689 16.228-.364 16.164 2.4-9.662 3.876-20.178 1.968-22.759 1.968-22.759z" fill="#6669ca"/><g data-name="Group 6435"><g data-name="Group 6434"><path data-name="Path 6633" d="M677.681 584.019a351.832 351.832 0 00-26.035-27.021 254.675 254.675 0 00-35.565-28.123 226.907 226.907 0 00-34.5-18.264v67.538h.016a21.348 21.348 0 012.439-.123h.264q1.232.015 2.432.145a28.24 28.24 0 012.571.4l.119.022c.828.168 1.624.361 2.391.574l.132.035a40.279 40.279 0 014.114 1.4l.1.039c1.176.477 2.136.925 2.809 1.26l.055.026c.329.164.573.293.747.39l.081.042.219.119a20.474 20.474 0 012.838 2.02c.551.458 1.07 1 1.6 1.514.313.313.635.6.938.934a31.48 31.48 0 012.014 2.436c.08.106.161.206.242.312a38.031 38.031 0 012.03 3.057 40.443 40.443 0 012.249 4.33v.006c.4.886.77 1.772 1.105 2.687v.01a38.933 38.933 0 011.6 5.828c.18.921.338 1.836.441 2.755a26.481 26.481 0 01.245 3.357 22.737 22.737 0 01-.29 3.657 17.227 17.227 0 01-.49 2.017c-.093.322-.158.68-.264.983a12.875 12.875 0 01-1.044 2.255c-.032.052-.055.113-.087.164a9.866 9.866 0 01-1.5 1.927 7.948 7.948 0 01-2.133 1.53 7.587 7.587 0 01-1.962.644c-.106.022-.219.032-.325.048a8.523 8.523 0 01-1.891.08c-.332-.023-.68-.109-1.025-.168a10.868 10.868 0 01-1.485-.319 14.234 14.234 0 01-2.816-1.247s-9.288-5.377-18.49-17.021v61.6l78.25 45.179 4.188 2.416a77.353 77.353 0 01-5.019-26.238c0-12.771 4.066-21.9 10.538-26.27-1.437 1.134-11.089 6.659-11.089 6.659s-29.518.519-32.656-25.69 16.018-34.547 24.2-29.621c1.459.88 3.019 3.006 4.6 5.883 2.777-2.226 6.643-2.413 10.957.077 0 0 9.279 5.367 18.477 17v-46.047q-3.175-3.561-6.335-7.203z" fill="#4e51c2"/><path data-name="Path 6634" d="M649.99 614.32c-8.183-4.926-27.343 3.412-24.2 29.621s32.656 25.69 32.656 25.69 9.652-5.525 11.089-6.659a35.462 35.462 0 01-3.989-1.865 21.059 21.059 0 01-2.748-1.956 34.053 34.053 0 01-8.567-11.344 37.4 37.4 0 01-3.995-15.951 20.31 20.31 0 011.079-6.8 12.081 12.081 0 011.746-3.328 9.006 9.006 0 011.527-1.527c-1.579-2.875-3.138-5.002-4.598-5.881z" fill="#4447bf"/></g><path data-name="Path 6635" d="M653.526 700.875l-11.553 3.562 10.953 17.707 11.089-6.659z" fill="#4e51c2"/><path data-name="Path 6636" d="M581.576 606.281l-11.089 6.664s2.961 11.2 5.545 18.96 16.666-5.67 16.666-5.67z" fill="#4e51c2"/><path data-name="Path 6637" d="M570.488 517.271l11.088-6.659 14.983 12.359-13.035 12.449z" fill="#4e51c2"/><path data-name="Path 6638" d="M658.444 669.63a35.436 35.436 0 01-3.989-1.865 21.274 21.274 0 01-2.748-1.956c-4.981 5.619-7.974 14.553-7.974 26.17a86.266 86.266 0 005 27.742l4.188 2.416a77.428 77.428 0 01-5.015-26.241c0-12.767 4.064-21.9 10.538-26.266z" fill="#5457c4"/><path data-name="Path 6639" d="M600.891 603.323c0-.464 0-.912.006-1.353v-.9c0-.528.007-1.034.007-1.527l.006-.8v-2.787c0-1.534.007-2.635.007-3.264v-.6l-.113-.061-.016-.01c-.68-.371-1.372-.754-2.059-1.131l-.145-.08c0 .109.016 2.387.029 5.9v1.282c0 .467 0 .918.006 1.418a40.961 40.961 0 012.246 4.327c.022-.13.022-.278.026-.414z" fill="#696ccb"/><path data-name="Path 6640" d="M570.487 537.052v38.139c3.844 2.152 7.674 4.291 11.453 6.4l.522.293c3.86 2.146 7.668 4.259 11.369 6.305l2.726-37.108s-11.517-6.97-26.07-14.029z" fill="#c5c6eb"/><path data-name="Path 6641" d="M641.972 628.389l-4.04-2.239-.377-.209-1.218-.673-1.163-.641c-.57-.316-1.166-.644-1.766-.973l-.522-.29c-.741-.406-1.5-.828-2.284-1.257l-.3-.168c-.773-.425-1.569-.867-2.378-1.311l-.377-.206c-1.569-.863-3.212-1.766-4.9-2.69l-1.25-.686c-.59-.325-1.192-.654-1.791-.983l-1.05-.577c-1.824-1-3.705-2.027-5.619-3.074l-.989-.541-2.419-1.324c-.293-.158-.583-.316-.876-.477l-6.328-3.451-.332-.18v.01a38.961 38.961 0 011.608 5.828l.8.425q1.087.58 2.162 1.15c.338.18.68.361 1.015.541q3.4 1.8 6.617 3.515l.905.48c3.389 1.8 6.595 3.5 9.533 5.061l.693.367c4.81 2.555 8.866 4.7 11.772 6.244.577.306 1.121.593 1.6.851l1.521.805a12.073 12.073 0 011.753-3.327z" fill="#696ccb"/><path data-name="Path 6642" d="M625.134 562.369c-17.662-17.062-41.9-28.2-53.549-33.548-.341-.158-.722-.322-1.1-.486v8.718c14.553 7.059 26.071 14.024 26.071 14.024l-2.726 37.108c1.617.892 3.193 1.759 4.768 2.626v-.01l2.213 1.227c1.862 1.021 3.705 2.03 5.493 3.006q3.325 1.812 6.434 3.492l1.157.622c1.746.941 3.451 1.856 5.077 2.726.271.142.528.28.793.422 1.749.931 3.438 1.824 5.032 2.661l.37.193c1.73.909 3.376 1.759 4.9 2.539 1.182.544 13.28 5.9 19.92 6.63 5.951.66 15.033-5.429 17.488-7.365-4.746-5.262-26.712-29.495-42.341-44.585zm26.473 45.491c-9.118 1.079-30.9-11.7-35.52-14.26-5.783-3.2-11.4-5.764-11.4-11.792-.016-6.882.854-18.6 2.188-22.278.664-1.836 1.076-3.038 7.813 1.408 9.839 6.5 30.475 26.254 35.546 32.237s7.446 13.963 1.373 14.685z" fill="#7d7fd2"/><path data-name="Path 6643" d="M651.707 665.81a34.055 34.055 0 01-8.567-11.344c-6.012 6.663-10 15.3-14.085 19.447-4.056 4.111-30.2-5.98-58.568-18.751v19.382l78.25 45.179a86.267 86.267 0 01-5-27.743c-.003-11.618 2.989-20.551 7.97-26.17z" fill="#696ccb"/><path data-name="Path 6644" d="M598.481 630.921a7.457 7.457 0 01-1.962.644c-.107.023-.216.032-.326.048a8.511 8.511 0 01-1.888.081c-.332-.023-.683-.109-1.024-.168a10.806 10.806 0 01-1.489-.319 14.238 14.238 0 01-2.816-1.247s-9.288-5.377-18.49-17.021v31.525c8.586 4.024 15.32 7.123 17.868 8.164 9.285 3.782 9.375 1.131 9.714-8.721.045-1.253.09-2.616.158-4.085.113-2.329.193-5.425.258-8.9z" fill="#7577cf"/><path data-name="Path 6645" d="M598.632 597.995v-1.282c-.013-3.525-.029-5.793-.029-5.9-1.575-.867-3.151-1.733-4.768-2.626-3.7-2.046-7.513-4.159-11.369-6.3l-.522-.293c-3.779-2.1-7.61-4.243-11.453-6.4v9.611h.016c.261-1.511 1.321-2.181 2.642-1.418l2.494 1.44c.88.093 1.737.232 2.571.4l.122.026c.825.164 1.62.358 2.387.57l.135.035a40.216 40.216 0 014.111 1.4l.1.039a41.25 41.25 0 012.806 1.26l.055.026c.329.168.573.293.751.39l.077.042.219.119a20.107 20.107 0 012.838 2.02c.551.457 1.07 1 1.6 1.514.313.313.635.6.941.934.7.757 1.363 1.582 2.01 2.436.081.106.161.206.242.313a38.602 38.602 0 012.033 3.057c-.006-.489-.006-.953-.009-1.413z" fill="#7577cf"/><path data-name="Path 6646" d="M598.484 630.921c-.064 3.476-.145 6.572-.258 8.9-.068 1.469-.113 2.832-.158 4.085-.338 9.852-.428 12.5-9.714 8.721-2.548-1.041-9.282-4.14-17.868-8.164v1.672c8.657 4.059 15.455 7.188 18.022 8.235 10.332 4.2 11.241 1.933 11.589-8.167.042-1.244.087-2.6.158-4.053.151-3.138.267-7.694.358-12.761a7.983 7.983 0 01-2.129 1.532z" fill="#696ccb"/><path data-name="Path 6647" d="M639.146 638.515a20.23 20.23 0 011.082-6.8l-1.521-.805c-.49-.261-1.021-.541-1.6-.851l-11.772-6.244-.693-.367c-2.941-1.559-6.141-3.261-9.533-5.061-.3-.158-.606-.319-.905-.48l-6.617-3.515-1.015-.541c-.718-.38-1.434-.76-2.162-1.15l-.8-.425c.18.921.338 1.836.441 2.755a26.491 26.491 0 01.242 3.357 22.739 22.739 0 01-.29 3.657 17.274 17.274 0 01-.49 2.017c-.093.322-.155.68-.264.983a12.852 12.852 0 01-1.044 2.255c-.029.052-.055.113-.087.164a9.743 9.743 0 01-1.5 1.927c-.09 5.068-.206 9.623-.358 12.761-.071 1.456-.116 2.809-.158 4.053-.348 10.1-1.257 12.371-11.589 8.167-2.568-1.047-9.366-4.175-18.022-8.235v9.024c28.368 12.771 54.512 22.862 58.568 18.751 4.085-4.143 8.074-12.784 14.085-19.447a37.4 37.4 0 01-3.998-15.95z" fill="#7577cf"/><path data-name="Path 6648" d="M666.592 590.681a351.286 351.286 0 00-26.034-27.024 254.894 254.894 0 00-35.562-28.123 227.079 227.079 0 00-34.508-18.264v9.385c.338.148.68.3.986.438 11.727 5.39 36.119 16.6 54.013 33.877 17.449 16.85 43.774 45.208 44.044 45.51l.847.944-.625.525c-.458.387-8.9 10.139-18.9 9.263-7.13-.625-20.32-8.4-20.919-8.757l.016-.822.119.055a554.547 554.547 0 01-4.9-2.539l-.374-.2q-2.4-1.256-5.026-2.658l-.8-.422q-2.45-1.31-5.077-2.726c-.287-.155-.544-.29-.834-.448l-.322-.174a1994.623 1994.623 0 01-11.921-6.492l.113.061v.6c0 .625 0 1.743-.007 3.264v2.787l-.006.8-.007 1.527v.9l-.006 1.353v.425c.4.886.773 1.775 1.1 2.687l.332.18 6.328 3.451.876.477 2.419 1.324c.332.18.661.361.989.541 1.917 1.047 3.8 2.075 5.619 3.074.354.2.7.383 1.05.577.6.329 1.2.66 1.791.983l1.25.686c1.688.925 3.325 1.827 4.9 2.69l.377.206c.809.448 1.6.886 2.378 1.311l.3.168c.78.428 1.543.851 2.284 1.257l.522.29c.6.329 1.2.657 1.766.973.4.222.776.428 1.163.641l1.218.673.377.209 4.04 2.239c2.774-3.621 7.32-4.43 12.484-1.45 0 0 9.279 5.368 18.477 17v-46.052q-3.19-3.561-6.35-7.2z" fill="#7577cf"/><path data-name="Path 6649" d="M573.145 583.391c-1.321-.764-2.381-.093-2.642 1.418a21.411 21.411 0 012.439-.122h.268c.818.01 1.63.058 2.429.145z" fill="#c5c6eb"/><path data-name="Path 6650" d="M669.53 606.48c-.271-.3-26.6-28.661-44.044-45.51-17.894-17.275-42.286-28.487-54.013-33.877-.306-.139-.648-.29-.986-.438v1.679c.377.164.757.329 1.1.486 11.646 5.351 35.887 16.486 53.549 33.548 15.629 15.091 37.595 39.321 42.343 44.586-2.455 1.936-11.537 8.025-17.488 7.365-6.64-.731-18.738-6.086-19.92-6.63.251.129.486.248.735.374-.251-.126-.483-.245-.738-.374l-.119-.055-.016.822c.6.354 13.789 8.132 20.919 8.757 10 .876 18.444-8.876 18.9-9.263l.625-.525z" fill="#696ccb"/><path data-name="Path 6651" d="M616.088 593.6c4.623 2.555 26.4 15.339 35.52 14.259 6.073-.722 3.7-8.7-1.379-14.685s-25.706-25.742-35.546-32.237c-6.737-4.446-7.149-3.244-7.813-1.408-1.334 3.676-2.2 15.4-2.187 22.278.01 6.029 5.622 8.597 11.405 11.793z" fill="#c5c6eb"/><path data-name="Path 6652" d="M684.02 591.223l-11.088 6.66v46.057l11.088-6.659z" fill="#4447bf"/></g><path data-name="Path 6653" d="M587.205 581.203c-.638-3.364-3.673-7.326-7.246-11.289a7.541 7.541 0 001.34-.1c1.15-.213 2.471.213 3.7-.177 1.936-.615 2.184-2.519-1.936-2.613a35.575 35.575 0 01-6.543-.793 104.952 104.952 0 01-8.667-9.614c-4.849-6.775-16.6-18.95-18.013-22.8s-8.183-17.758-8.183-17.758l-15.11 4.639s3.376 8.2 6.7 15.4 8.048 10.332 13.267 16.041c3.093 3.383 11.711 9.485 16.6 13.986 3.37 3.1 7.478 11.012 10.661 14.063 7.238 6.927 14.906 8.786 13.43 1.015z" fill="#c2c3ea"/><path data-name="Path 6654" d="M546.556 522.821a18.4 18.4 0 01-19.43 5.454c-2.072-5.864-4.53-12.649-5.026-17.227-1.437-13.222 3.989-19.93 8.969-21.563 4.446 1.714 6.843 2 11.183 15.648 1.476 4.644 2.461 12.421 4.304 17.688z" fill="#a8aae1"/></g><g data-name="Group 6437"><path data-name="Path 6655" d="M690.13 579.975c-4.707-.612-23.119 19.653-30.7 27.929-4.452 1.427-21.65 4.562-27.662 5.483s-13.351-1.008-15.874-3.344-4.32-.519-3.009 1.469 6.878 4.4 4.375 4.981-10.87 2.761-12.913 6.292c-.986 1.7-.219 4.295 2.661 5.638 3.093 1.443 10.851 1.327 15.184-.738 2.413-1.15 4.42-3 7.8-2.906 8.357.242 24.569.4 32.756.654 3.3.1 5.284.242 11.337-6.8 4.536-5.28 16.209-14.156 18.135-21.138 2.502-9.04 2.018-16.985-2.09-17.52z" fill="#c2c3ea"/><path data-name="Path 6656" d="M706.023 776.67c2.719-1.7 16.489 6.321 16.489 6.321l17.765 5.96-.007 12.7s-6.965 9.263-16.334 2.951c-5.583-3.763-15.384-9.623-18.5-16.018s-2.135-10.213.587-11.914z" fill="#472e2e"/><path data-name="Path 6657" d="M663.651 797.566c2.719-1.7 16.489 6.324 16.489 6.324l19.008 6.379-1.456 14.314s-6.759 7.233-16.125.921c-5.587-3.763-15.387-9.623-18.5-16.022s-2.138-10.211.584-11.916z" fill="#472e2e"/><path data-name="Path 6658" d="M730.519 639.056a98.007 98.007 0 019.027 33.194c.615 8.17-3.876 54.1-3.876 54.1s2.084 5.989 3.744 17.6c2.091 14.614 3.534 51.158 3.576 49.779 0 0-4.72 6.437-11.073 6.553-7.7.135-13.7-9.221-13.7-9.221s-8.5-50.456-9.008-63.307c-.316-8.051.722-37.015.722-37.015s-8.241 38.41-7.613 48.21-1.247 67.525-1.775 71.565c-1.637 5.873-6.424 7.526-11.556 8.667-6.5 1.443-15.033-10.613-15.033-10.613s.506-65.511 0-75.817c-.857-17.594 7.742-86.52 7.742-86.52z" fill="#33211f"/><path data-name="Path 6659" d="M715.601 588.665c-.818-.651 2.6-11.55 2.6-11.55l-2.726-24.55s13.28.606 16.95 10.294c1.363 3.6 3.109 19.456-1.959 29.74-5.415 1.327-10.523-.497-14.865-3.934z" fill="#5659c5"/><path data-name="Path 6660" d="M700.453 517.953c5.177-3.592 15.133-2.471 19.45 6.653 2.394 5.052-.986 18.635-1.521 28.174-.432 7.69 2.146 12.133 2.146 12.133l-6.6 2.719c-6.595 2.722-13.477 0-13.477 0l.216-11.73s-7.1-1.057-8.348-2.194c-2.993-2.745-4.578-10.906-3.193-21.431 2.067-15.667 9.419-12.999 11.327-14.324z" fill="#c2c3ea"/><path data-name="Path 6661" d="M682.601 606.841c-3.708-8.615 1.5-23.8 4.024-29.341s14.176-9.021 14.176-9.021l24.244-7.323s14.578 11.366 12.507 33.529c-.731 7.845-.725 37.585.174 59.342-2.123 8.447-28.4 14.082-39.422 11.128-3.412-.915-14.607-2.3-18.164-9.076-1.037-4.623 1.633-8.509 2.893-17.156 1.594-10.918 1.842-26.801-.432-32.082z" fill="#6568ca"/><path data-name="Path 6662" d="M701.622 565.22s12.732-3.354 19.127-6.64c3.882-1.994 6.241 6.64 6.241 6.64s-4.572 5.68-11.276 7.813-12.681.335-19.279-2.922c-.042-4.34 5.187-4.891 5.187-4.891z" fill="#5659c5"/><path data-name="Path 6663" d="M664.556 595.491c7.6-9.066 16.125-20.535 25.5-22.6 6.3-1.385 10.451 10.651 6.753 20.072-2.329 5.931-7.007 14.81-12.855 20.59-7.88-2.053-17.384-9.998-19.398-18.062z" fill="#5659c5"/><path data-name="Path 6664" d="M716.581 511.539c2.42-1.514 5.48.5 5.864 3.17 2.22-.973 4.514 1.749 3.766 3.666 3.054-.325 4.043 3.277 2.184 5.68 3.657 1.437 3.077 4.227 1.124 6.666 2.616 2.184 2.616 5.132-.725 6.228 2.655 2.165.532 4.955-1 4.955 1.8 2.362.061 5.032-2.029 4.916a3.947 3.947 0 01-1.962 6.3c.548 2.5-.983 4.562-3.064 4.134-1.086 4.823-6.134 2.8-6.55 1.031-1.685 1.079-4.511 1.06-4.958-1.608-2.719 1.434-6.057-3.3-4.549-5.741-3.273-1.859-4.269-3.2-2.3-5.815-4.034-.3-4.926-2.545-3.486-5.548-2.3 1-3.918.438-4.839-3.148-2.59.416-5.119-3-2.919-6.028-3.067-1.092-2.835-4.233-.873-5.245-2.294-.654-3.167-5.79.661-6.034-1.753-4.124.432-5.654 3.325-5.042.058-3.344 2.143-4.874 5.638-2.877 1.74-3.2 7.916-5.055 8.937-1.121a4.3 4.3 0 017.755 1.461z" fill="#33211f"/></g><g data-name="Group 6439"><path data-name="Path 6665" d="M597.002 170.797c2.59-1.853-6.966 15.429-10.206 20.622-8.5 7.217-24.054 25.065-32.64 31.483s-13.6 8.277-13.7 8.821 9.691 6.324 13.7 5.268 7.954-6.26 10.938-9.3 27.942-19.06 31.576-22.543a43.862 43.862 0 005.944-7.033c.764-.986 11.933-20.51 11.737-20.661s-17.349-6.657-17.349-6.657z" fill="#c2c3ea"/><path data-name="Path 6666" d="M592.186 177.985a24.722 24.722 0 0012 8.167c7.442 2.062 12.2 3.36 12.2 3.36s5.248-10.358 10.426-29.4c2.925-10.757-11.183-15.278-18.081-8.6-9.042 8.756-16.545 26.473-16.545 26.473z" fill="#6669ca"/><path data-name="Path 6667" d="M597.576 389.751a241.062 241.062 0 008.325-8.522l21.686-.921v7.172a9 9 0 01-4.03 5.1 91.91 91.91 0 01-13.577 7.075c-5.071 1.824-14.134 3.773-18.138 3.927-4.552.174-6.518-1.969-4.13-4.3 4.09-3.996 5.453-5.233 9.864-9.531z" fill="#472e2e"/><path data-name="Path 6668" d="M647.919 393.204l19.559-2.2a50.955 50.955 0 01-1.846 25.249c-4.572 12.816-12.607 12.945-15.429 11.93s-4.124-9.169-3.618-18.4 1.334-16.579 1.334-16.579z" fill="#472e2e"/><path data-name="Path 6669" d="M622.386 222.902c-9 2.677-17.32 5.912-17.32 5.912s-5.7 42.092-7.445 67.4c-1.985 28.761 4.488 85.47 4.488 85.47s1.018 6.137 11.6 5.268c8.125-.67 14.3-7.806 14.3-7.806l-4.456-65.418 9.3-40.552c-1.359-23.05-8.634-27.258-10.467-50.274z" fill="#33211f"/><path data-name="Path 6670" d="M675.065 386.007s-5.545-41.873-17.684-69.187c-1.012-20.738 6.727-44.515 2.007-65.073-5.9-25.687-15.142-24.981-15.142-24.981.564-4.317-8.908-3.583-18.767-1.7.019 17.207.129 34.412.016 51.612l.2-1.015s1.395 34.18 6.679 52.792c6.972 24.579 11.869 67.348 11.869 67.348s13.789 4.923 23.232.2 7.59-9.996 7.59-9.996z" fill="#33211f"/><path data-name="Path 6671" d="M619.097 154.379a29.137 29.137 0 016.382-2.951l18.155 4.2s17.552 5.355 21.7 19.021a120.2 120.2 0 01-.886 18.776c-.638.393-4.762-.271-5.065.606-5.519 16.07-2.336 36.928-1.176 53.075-27.256 11.953-47.727 5.934-55.276-1.775.005-28.331-8.941-68.103 16.166-90.952z" fill="#888ad6"/><path data-name="Path 6672" d="M622.26 153.58s-.812 1.434-4.211 9.594-5.168 12.929 1.153 15.439 12.14-3.924 19.1-10.674 7.626-11.463 7.626-11.463a34.114 34.114 0 00-10.806-5.049c-5.974-1.468-12.862 2.153-12.862 2.153z" fill="#6669ca"/><g data-name="Group 6438"><path data-name="Path 6673" d="M624.38 152.223l16.486-11.975 2.768 15.384a75.811 75.811 0 01-7.571 10.587c-3.1 3.489-12.8 11.044-16.7 8.38-4.543-3.106 4.166-17.423 4.166-17.423z" fill="#a5a7e0"/><path data-name="Path 6674" d="M642.797 118.955c3.647 4.649 4.778 16.292-.242 24.492-4.462 7.281-14.64 11.4-19.16 12.13-8.074 1.3-16.782-21-7.565-34.634 8.785-13.006 22.275-7.967 26.967-1.988z" fill="#c2c3ea"/><path data-name="Path 6675" d="M635.041 109.084a16.368 16.368 0 0110.619 7.049c8.225 1.753 7.384 13.6 5.345 18.074-3.943 8.644-8.451 9.24-8.451 9.24s1.176-4.717.135-6.769c-.889-1.753-3.689-2.055-4.633 1.06a7.133 7.133 0 01-2.287.226l.947-6.228a11.161 11.161 0 01-10.136-.709c-4.994-2.887-9.855-1.208-11.592.432a12.244 12.244 0 01-.815-6.353c-3.2-2.239-6.24-4.253-5.777-5.777a9.27 9.27 0 007.652-.722 18.225 18.225 0 01-4.175-4.765c5.623.722 17.756-5.641 23.168-4.758z" fill="#33211f"/></g></g><g data-name="Group 6444"><g data-name="Group 6440"><path data-name="Path 6676" d="M597.789 249.842c-16.54-3.815-39.122-6.924-58.591-9.163-7.226 6.827-15.284 13.444-24 18.325-.039.226 0 .441-.058.667a8.5 8.5 0 01-.074.261 10.1 10.1 0 01-1.208 2.648c-.032.048-.058.1-.09.145a14.675 14.675 0 01-2.3 2.713c15.013 7.89 32.14 16.834 42.411 22 8.505 4.285 21.95 11.418 36.583 19.3l12.813 7.4a4.712 4.712 0 001.8.506 6.959 6.959 0 004.127-.754c1.749-1.008 1.939-2.548.425-3.425l-12.958-7.481a83.356 83.356 0 00-7.684-1.492c-.139-.023-.271-.045-.409-.064-.1-.016-.213-.022-.316-.039l8.586-4.958 33-19.053 7.533-4.349.683-.393.773-.448 3.038-1.753 5.364-3.1c-8.555-5.947-35.037-14.172-49.448-17.493z" fill="#5457c4"/></g><path data-name="Path 6677" d="M647.244 267.34v-12.749l-61.495 34.155 1.048 13.2 18.1-10.159z" fill="#4e51c2"/><path data-name="Path 6678" d="M518.453 238.475l-3.721-8-28.867-1.286v12.748c14.649 2.152 23.918 7.494 23.918 7.494a12.713 12.713 0 012.155 1.575 21.646 21.646 0 012.374 2.819c7.117-4.324 14.024-8.847 20.922-13.593a1251.352 1251.352 0 00-16.781-1.757z" fill="#4e51c2"/><g data-name="Group 6442"><g data-name="Group 6441"><path data-name="Path 6680" d="M514.119 306.645a184.849 184.849 0 00-23.979 13.836 104.766 104.766 0 00-9.939 7.948l30.613 17.675 16.734-9.662 7.826-4.517 1.45-.838 27.4-15.822v-14.474c-15.973-7.11-34.334-1.727-50.105 5.854z" fill="#4447bf"/><path data-name="Path 6681" d="M564.43 315.154c.026.058.039.122.065.18 3.65 8.612 13.1 14.073 13.1 14.073 3.612 2.084 8.389 3.106 13.425 3.225a41.018 41.018 0 004.523-.151 37.1 37.1 0 0015.036-4.443 21.4 21.4 0 004.269-3.251 15.821 15.821 0 002.639-3.386 7.717 7.717 0 001.063-4.043c0-.145-.01-.928-.01-.928v-12.259l-35-1.144-15.915-.519a37.786 37.786 0 00-3.4-1.717v14.479l.206-.116z" fill="#4e51c2"/></g></g><g data-name="Group 6443"><path data-name="Path 6682" d="M597.856 250.928c-24-8.547-58.156-7.687-71.111-6.978 14.582 8.344 42.511 24.273 70.1 39.737l33-19.053a312.122 312.122 0 00-31.989-13.706z" fill="#c5c6eb"/><path data-name="Path 6683" d="M597.857 250.928a312.113 312.113 0 0132 13.705l7.532-4.349a302.484 302.484 0 00-62.569-19.324c-24.186-4.446-54.841-1.82-56.3-1.724l2.719 1.556c.345.2.68.39 1.057.609l.229.129 4.224 2.42c12.952-.714 47.106-1.569 71.108 6.978z" fill="#7d7fd2"/><path data-name="Path 6684" d="M446.978 271.65a86.257 86.257 0 01-26.521 9.543l90.357 52.167 16.734-9.662c-41.184-19.082-83.923-41.451-83.923-41.451s21-11.076 30.223-25.51l-.5-.325-.177-.119c-.148-.1-.309-.209-.48-.329-.1-.071-.2-.142-.312-.219q-.237-.169-.493-.358a17.73 17.73 0 01-.393-.29l-.538-.412-.448-.351c-.187-.148-.377-.309-.57-.467a42.886 42.886 0 00-.483-.4 44.79 44.79 0 01-.657-.583c-.145-.129-.287-.251-.432-.383-.28-.261-.564-.535-.851-.812-.09-.093-.184-.174-.274-.267a32.172 32.172 0 01-1.147-1.2c-1.968 7.6-8.376 15.226-19.115 21.428z" fill="#696ccb"/><path data-name="Path 6685" d="M465.938 274.295c-1.015 2.146-3.663 7.819 9.623 14.356 14.533 7.114 41.96 20.458 61.262 29.692l27.608-15.936c.026.058.039.122.065.18 3.65 8.612 13.1 14.069 13.1 14.069 3.612 2.088 8.389 3.109 13.425 3.225 5.754-3.189 12.574-7.078 18.677-10.593-22.3-11.908-46.409-24.824-55.762-30-8.663-4.8-28.148-15.239-45.059-24.559-.493.332-.912.686-1.459 1a29.97 29.97 0 01-3.5 1.695c-.364.151-.735.287-1.108.428-.905.341-1.827.648-2.774.921-.393.113-.78.232-1.179.335-1.231.313-2.477.58-3.74.777-.081.013-.155.032-.235.045-1.321.2-2.651.313-3.979.383-.435.023-.86.026-1.292.032-.938.019-1.865.01-2.787-.039-.438-.023-.876-.039-1.311-.074a35.588 35.588 0 01-3.318-.441c-.158-.029-.325-.042-.48-.071-9.723 6.087-13.554 9.849-15.777 14.575z" fill="#7577cf"/><path data-name="Path 6686" d="M612.947 296.245a67.682 67.682 0 00-16.276-6.005l12.958 7.481c1.514.876 1.321 2.416-.425 3.425a6.984 6.984 0 01-4.127.754c3 1.63 6 3.26 8.969 4.878 1.614-.934 3.122-1.807 4.494-2.606-.135-2.972-1.907-5.8-5.593-7.927z" fill="#7577cf"/><path data-name="Path 6687" d="M553.876 274.698c8.505 4.282 21.95 11.418 36.58 19.3l-2.639-1.521c-1.514-.876-1.321-2.416.428-3.425a5.64 5.64 0 01.741-.3c-.139-.019-.271-.042-.409-.061-.1-.016-.213-.026-.316-.039l8.586-4.958c-27.591-15.464-55.52-31.393-70.1-39.737-1.588-.909-2.977-1.7-4.224-2.42l-.229-.129-1.057-.609-2.719-1.556-3.976 2.165a7.723 7.723 0 01.812 2.687c.01.08 0 .161.01.242a7.906 7.906 0 01-.222 2.594 8.328 8.328 0 01-.074.258 10.069 10.069 0 01-1.208 2.651c-.029.048-.058.1-.09.145a14.777 14.777 0 01-2.3 2.713c15.008 7.885 32.135 16.829 42.406 22z" fill="#7577cf"/><path data-name="Path 6688" d="M464.096 274.154c-.915 1.949-3.579 7.6 7.391 13.937.828.477 1.737.96 2.726 1.44 14.508 7.1 41.847 20.407 61.162 29.647l1.45-.834c-19.3-9.234-46.728-22.578-61.262-29.692-13.287-6.537-10.638-12.21-9.623-14.356 2.223-4.726 6.054-8.493 15.777-14.578-.461-.093-.886-.235-1.321-.361-.38-.1-.754-.2-1.124-.306-9.477 6.207-12.942 10.367-15.176 15.103z" fill="#696ccb"/><path data-name="Path 6689" d="M617.487 308.652l-1.147-.625 1.824-1.041a7.975 7.975 0 00.377-2.816c-1.372.8-2.88 1.672-4.494 2.606-2.967-1.617-5.97-3.248-8.969-4.878a4.711 4.711 0 01-1.8-.506l-12.813-7.4c-14.633-7.88-28.078-15.017-36.583-19.3-10.271-5.171-27.4-14.115-42.411-22.008a20.764 20.764 0 01-2.587 2.033c16.911 9.321 36.4 19.759 45.059 24.559 9.353 5.181 33.458 18.1 55.762 30-6.1 3.515-12.923 7.4-18.677 10.593a41.02 41.02 0 004.523-.148c5.276-2.916 11.119-6.216 16.419-9.216l2.874 1.53a13.766 13.766 0 002.643-3.383z" fill="#696ccb"/><path data-name="Path 6690" d="M446.978 271.65c10.738-6.2 17.146-13.828 19.118-21.431a30.9 30.9 0 01-2.445-3.07 14.975 14.975 0 01-.187-.277 22.918 22.918 0 01-2.017-3.586l-2.268 1.311c1.147 8.757-4.726 18.28-17.372 25.581a77.421 77.421 0 01-25.23 8.776l3.879 2.239a86.256 86.256 0 0026.522-9.543z" fill="#5457c4"/><path data-name="Path 6691" d="M443.625 282.247s42.74 22.369 83.923 41.451l7.826-4.52c-19.315-9.24-46.654-22.543-61.162-29.647-.989-.48-1.9-.963-2.726-1.44-10.97-6.334-8.306-11.988-7.391-13.937 2.23-4.736 5.7-8.9 15.174-15.1a24.697 24.697 0 01-2.181-.741 18.27 18.27 0 01-2.661-1.215s-.222-.132-.58-.358c-9.219 14.43-30.222 25.507-30.222 25.507z" fill="#7577cf"/><path data-name="Path 6692" d="M595.543 319.731a37.1 37.1 0 0015.036-4.443 21.2 21.2 0 004.269-3.254l-2.874-1.53a2088.12 2088.12 0 01-16.431 9.227z" fill="#7577cf"/><path data-name="Path 6693" d="M516.41 238.025c.348-.026 35.008-3.077 59.561 1.434 25.32 4.652 50.665 14.414 62.869 19.985l3.038-1.756 5.364-3.1c-8.56-5.951-35.043-14.176-49.454-17.5-35.674-8.225-99.475-13.177-99.475-13.177s-.722-.277-2-.764l-10.451 6.034c14.649 2.152 23.918 7.494 23.918 7.494a12.879 12.879 0 012.155 1.572 11.382 11.382 0 011.421 1.456z" fill="#7577cf"/><path data-name="Path 6694" d="M609.629 297.721l-12.958-7.481a83.356 83.356 0 00-7.684-1.492 5.23 5.23 0 00-.741.3c-1.749 1.008-1.943 2.548-.428 3.425l2.642 1.524 12.813 7.4a4.711 4.711 0 001.8.506 6.959 6.959 0 004.127-.754c1.753-1.012 1.943-2.552.429-3.428z" fill="#c5c6eb"/><path data-name="Path 6695" d="M575.971 239.459c-24.553-4.51-59.213-1.459-59.561-1.434l-3.047 1.685a9.67 9.67 0 011.182 1.691l3.976-2.165c-.435-.251-.783-.451-1.083-.622l1.083.622c1.459-.1 32.115-2.722 56.3 1.724a302.485 302.485 0 0162.564 19.32l.683-.4.773-.445c-12.204-5.562-37.55-15.324-62.87-19.976z" fill="#696ccb"/><path data-name="Path 6696" d="M617.39 308.668a9.547 9.547 0 00.673-1.666c-.6.342-1.2.68-1.824 1.041.384.209.764.416 1.151.625z" fill="#7577cf"/></g><path data-name="Path 6697" d="M416.579 291.702v-12.749l94.235 54.406v12.749z" fill="#4e51c2"/></g><g data-name="Group 6445"><path data-name="Path 6698" d="M407.55 325.827c0 8.808 10.12 15.094 17.037 7.655a22.036 22.036 0 004.662-8.006 231.025 231.025 0 00-8.792-31.264l-10.187 1.669s-2.72 19.098-2.72 29.946z" fill="#c2c3ea"/><path data-name="Path 6699" d="M417.3 314.977c-6.376.516-11.953-4.375-11.953-4.375s3.383-15.168 5.912-21.144c1.927-4.546 3.731-9.3 9.559-10.422a7.077 7.077 0 018.373 5.941c1.044 5.979-4.349 27.139-11.891 30z" fill="#5659c5"/><path data-name="Path 6700" d="M419.751 523.285c1.688 4.024 5.583 3.65 13.461.815a67.831 67.831 0 0017.723-9.034c4.971-3.679 5.019-4.166 5.677-6.653.918-3.483-4.163-5.435-12.613-2.809-.835.258-1.6.506-2.323.744 1.556.261 3.164.838 3.86 2.139 1.537 2.883-3.267 5.973-8.322 8.5s-9.192 2.526-11.718 1.379a382.037 382.037 0 00-5.538-2.445c-.516 3.379-1.225 4.948-.207 7.364z" fill="#33211f"/><path data-name="Path 6701" d="M419.23 468.249c-.161-2.11-.393-4.42-.638-6.83a47.5 47.5 0 0018.367 2.146c-.342 6.7-.677 12.881-.918 16.592-.815 12.552-1.356 28.767-1.356 28.767s2.326-1.044 6.988-2.577c1.556.261 3.167.834 3.86 2.139 1.537 2.883-3.267 5.973-8.322 8.5s-9.192 2.526-11.717 1.379a397.184 397.184 0 00-5.538-2.445 40.5 40.5 0 00.193-9.923c-.639-7.477-.359-30.56-.919-37.748z" fill="#a5a7e0"/><path data-name="Path 6702" d="M443.167 481.409c-.058.7.213-6.212.4-14.978 5.809 2.71 12.062 4.1 18.531 5.229-.541 3.9-1.118 7.78-1.688 11.463-1.434 16.76-2.677 38.519-2.677 38.519s2.326-1.044 6.988-2.577c1.556.261 3.167.834 3.86 2.139 1.537 2.883-3.267 5.973-8.322 8.5s-9.192 2.526-11.717 1.379a382.037 382.037 0 00-5.538-2.445 40.669 40.669 0 00.193-9.923c-.777-9.012-.493-25.891-.03-37.306z" fill="#c2c3ea"/><path data-name="Path 6703" d="M442.793 536.002c1.688 4.024 5.587 3.65 13.461.815a67.74 67.74 0 0017.723-9.037c4.971-3.676 5.019-4.166 5.677-6.653.918-3.48-4.162-5.432-12.613-2.806-.835.258-1.6.506-2.323.744 1.556.261 3.167.834 3.86 2.139 1.537 2.883-3.264 5.973-8.322 8.5s-9.192 2.526-11.717 1.379a402.503 402.503 0 00-5.538-2.445c-.514 3.379-1.223 4.948-.208 7.364z" fill="#33211f"/><path data-name="Path 6704" d="M445.557 239.43c1.956 1.356 9.949 1.124 11.985 17.188 1.8 14.234-2.323 15.545-5.216 16.753-1.595.664-7.413 2.574-7.413 2.574l.644 14.395s-7.049 2.787-13.808 0l-6.759-2.79s2.639-4.549 2.2-12.433c-.548-9.775-4.008-23.693-1.559-28.87 4.423-9.349 14.623-10.496 19.926-6.817z" fill="#c2c3ea"/><path data-name="Path 6705" d="M470.084 390.904c-4.324-25.271-9.037-32.556-11.212-42.666a29.256 29.256 0 015.416-23.905s.577-12.127-4.269-21.856-11.038-10.877-15.677-12.449c-4.916-1.666-20.693-4.452-20.693-4.452s-10.706 9.33-11.473 24.266c-1.044 20.31 10.919 28.645 7.056 42.724-2.877 10.477-9.53 25.98-13.886 52.3-3.254 19.643-6.895 43.413-3.95 63.275 6.153 5.883 13.863-.6 17.194 2.941 3.528 3.75 6.17 13.609 17.343 10.748 5.574-1.424 7.642-5.058 12.684-6.7 2.41-.786 7.3 3.3 12.4 3.963 9.066 1.186 15.464-10.951 15.464-10.951s-3.671-61.3-6.397-77.238z" fill="#6568ca"/><path data-name="Path 6706" d="M525.216 334.352a44.676 44.676 0 00-10.986-.657 8.5 8.5 0 012.346-3.885c1.756-1.521.776-4.472-2.416-1.811s-7.146 3.415-9.936 5.88-6.073 2.371-16.74 2.987c-4.813.28-9.14.358-12.851.532-3.19-7.581-9.388-22.353-9.388-22.353l-16.629 5.221s4.13 10.155 9.211 20.281a44.79 44.79 0 007.014 10.055c2.69 2.436 4.424 3.312 6.286 3 12.082-1.582 29.827-8.824 33.912-9.082 4.839-.3 11.376 1.3 17.723-2.043 3.754-1.981 7.775-6.972 2.454-8.125z" fill="#c2c3ea"/><path data-name="Path 6707" d="M454.578 295.053c-2.922-.712-8.522 1.766-10.426 8.3-2.916 10 .918 14.74 3.173 19.727.735 1.624 3.892 7.352 3.892 7.352 2.581.309 6.656.342 11.991-2.69a12.443 12.443 0 005.941-6.724s-1.82-7.043-3.818-13.373c-1.758-5.568-4.951-11.177-10.753-12.592z" fill="#5659c5"/><path data-name="Path 6708" d="M449.881 292.009a8.584 8.584 0 00-6.779-5.058c-14.295-1.376-16.663-3.389-16.663-3.389s-3.125-.577-4.617 2.014c-.928 1.614-1.727 2.941-1.727 2.941s16.793 8.328 29.786 3.492z" fill="#33211f"/><path data-name="Path 6709" d="M458.873 250.764a46.076 46.076 0 01-8.663 4.652c1.5 25.668 6.688 31-3.676 37.185-3.061 1.827-9.5 4.182-10.674 14.788-1.807 16.325-12 19.537-12 19.537s-10.654-10.2-10.857-34.785c-.1-12.9.876-46.338 5.818-52.357 7.977-9.717 16.621-9.888 24.856-6.434 6.533-1.533 13.527 1.363 15.196 17.414z" fill="#33211f"/><path data-name="Path 6710" d="M418.592 354.781s8.1 10.377 24.511 8.9 18.683-5.519 18.683-5.519l-1.795-5.6s-9.169 4.134-18.618 4.134-21.277-8.093-21.277-8.093z" fill="#5659c5"/><path data-name="Path 6711" d="M426.407 374.354s-8.093 23.355-9.933 45.053-3.586 36.828-3.476 50.788a6.785 6.785 0 015.593.889s1.2-32.437 3.4-55.021 4.416-41.709 4.416-41.709z" fill="#5659c5"/><path data-name="Path 6712" d="M449.881 385.146s-2.51 26.818-2.787 44.47 0 46.116 0 46.116a6.313 6.313 0 014.813 0c2.449 1.092 4.217 1.878 4.217 1.878s.635-24-.335-45.51-5.908-46.954-5.908-46.954z" fill="#5659c5"/></g><path data-name="Path 6713" d="M654.152 191.068s.361 24.482-1.057 31.834c-5.654 12.146-9.33 24-15.712 29.788-5.76 5.232-7.813 3.235-10.864 5.435-3.4 2.452-2.149 3.235 1.115 2.816s4.056.474 3.992 2.668-3.992 11.237-3.583 14.817 7.806-.9 11.853-6.4c3.9-5.287 5.364-9.288 6.038-12.98s17.562-22.465 21.067-28.909 8.19-29.411 4.752-35.906-17.601-3.163-17.601-3.163z" fill="#c2c3ea"/><path data-name="Path 6714" d="M658.393 164.121a23.977 23.977 0 00-6.724 14.488c-1.144 11.7-.155 28.651-.155 28.651s4.127 2.938 11.386 2.465c7.607-.5 9.488-3.692 11.318-5.986 0 0-.59-22.829-2.465-28.58-2.96-9.086-13.36-11.038-13.36-11.038z" fill="#6669ca"/><path data-name="Path 6715" d="M554.156 224.333c-.854-.177-6.84 1.408-10.007 1.408s-6.917-.528-8.915 0-.967 2.287 2.126 2.816 9.253 2.816 13.3 2.465 5.255-1.031 5.255-1.031z" fill="#c2c3ea"/><g data-name="Group 6448"><g data-name="Group 6447"><g data-name="Group 6446"><path data-name="Path 6716" d="M298.796 556.537l1.06-11.518-4.617-.132a28.592 28.592 0 00-6.672-6.466c-16.573-11.772-47.3-13.386-68.643-3.608a42.9 42.9 0 00-11.64 7.607l-5.951-.171-1.224 13.035h.048c-.731 6.518 2.516 13.132 10.136 18.544 16.573 11.769 47.308 13.386 68.646 3.608 11.743-5.38 18.161-13.093 18.825-20.9zm-70.769-15.97c15.577-7.136 38.01-5.957 50.1 2.635.57.4 1.07.825 1.572 1.244l-55.891-1.588a37.143 37.143 0 014.22-2.292z" fill="#472e2e"/><path data-name="Path 6717" d="M267.813 555.947c-12.3 5.635-30.007 4.7-39.56-2.078s-7.323-16.853 4.974-22.485 30.007-4.7 39.56 2.078 7.327 16.85-4.974 22.485z" fill="#c5c6eb"/><path data-name="Path 6718" d="M289.751 525.879c-16.573-11.772-47.305-13.386-68.646-3.608s-25.2 27.243-8.628 39.015 47.308 13.386 68.646 3.608 25.203-27.246 8.628-39.015zM222.912 556.5c-12.1-8.592-9.275-21.341 6.3-28.48s38.01-5.957 50.1 2.635 9.279 21.341-6.3 28.477-38.002 5.962-50.1-2.632z" fill="#634b4b"/><path data-name="Path 6719" d="M279.315 530.66c-12.095-8.592-34.528-9.772-50.1-2.635s-18.4 19.888-6.3 28.48 34.531 9.768 50.1 2.632 18.398-19.885 6.3-28.477zm-50.037 22.926c-9.362-6.65-7.181-16.521 4.878-22.046s29.428-4.614 38.793 2.039 7.181 16.521-4.878 22.046-29.424 4.614-38.793-2.039z" fill="#33211f"/></g><path data-name="Path 6720" d="M274.856 532.703c-10.184-7.23-29.07-8.225-42.182-2.217s-15.484 16.743-5.3 23.973 29.067 8.225 42.179 2.217 15.487-16.74 5.303-23.973zm-39.8-.522a40.579 40.579 0 0121.264-3.209 15.809 15.809 0 01-9.227 7.465c-6.473 1.073-13.448-.709-16.5-1.653a25.474 25.474 0 014.468-2.603zm-5.657 20.046c-5.7-4.7-6.034-10.574-1.115-15.452 3.415 1.308 11.089 4.385 10.957 8.264-1.383 3.367-6.641 5.912-9.837 7.188zm30.887-22.678a27.425 27.425 0 0111.492 4.562c3.225 2.291 4.984 4.984 5.393 7.732-3.5.019-11.25-.261-15.906-2.912-3.529-3.164-1.764-7.436-.974-9.382zm-28.301 24.485a33.044 33.044 0 0114.4-3.924c6.415.738 9.891 5.351 11.521 7.642-9.278 1.698-19.072.325-25.921-3.718zm30.826-6.44c3.969-2.651 10.574-3.27 14.411-3.576-.322 4.2-3.734 8.07-10.049 10.967a34.984 34.984 0 01-5.229 1.869c-.959-2.014-2.224-6.038.863-9.26z" fill="#7d7fd2"/></g><path data-name="Path 6721" d="M254.581 545.725a8.118 8.118 0 01-7.3-.387c-1.762-1.25-1.353-3.109.918-4.15a8.118 8.118 0 017.3.383c1.766 1.254 1.354 3.116-.918 4.154z" fill="#634b4b"/><path data-name="Path 6722" d="M252.851 544.495a3.717 3.717 0 01-3.344-.177c-.809-.574-.619-1.424.419-1.9a3.724 3.724 0 013.347.177c.806.572.619 1.423-.422 1.9z" fill="#7d7fd2"/></g><path data-name="Path 6723" d="M193.542 261.267c-3.045-.938 11.489 12.43 16.209 16.331 10.345 4.153 20.361 13.28 33.645 16.544 8.335 5.841 20.49 14.346 20.764 14.83s-4.878 1.247-9.014 1.517-9.53-3.421-13.322-5.361-32.54-9.23-37.092-11.382a43.984 43.984 0 01-7.864-4.788c-1.034-.693-17.813-15.674-17.675-15.88s14.349-11.811 14.349-11.811z" fill="#c2c3ea"/><path data-name="Path 6724" d="M206.091 267.356a24.738 24.738 0 01-11.247 9.176c-7.236 2.7-11.869 4.4-11.869 4.4s-6.125-9.868-12.929-28.393c-3.844-10.468 9.823-16.189 17.269-10.132 9.768 7.947 18.776 24.949 18.776 24.949z" fill="#a8aae1"/><path data-name="Path 6725" d="M199.438 482.247c-4.762-4.643-8.328-8.521-8.328-8.521l-18.467-10.013-3.215 16.263a9 9 0 004.03 5.1 92.241 92.241 0 0013.577 7.078c5.071 1.82 14.134 3.769 18.139 3.924 4.552.174 6.517-1.969 4.13-4.3-4.093-3.996-5.459-5.234-9.866-9.531z" fill="#472e2e"/><path data-name="Path 6726" d="M149.095 485.7l-19.559-2.2a50.955 50.955 0 001.846 25.249c4.572 12.816 12.607 12.945 15.426 11.93s4.127-9.169 3.621-18.4-1.334-16.579-1.334-16.579z" fill="#472e2e"/><path data-name="Path 6727" d="M174.627 315.399c9 2.677 17.32 5.912 17.32 5.912s5.7 42.092 7.446 67.4c1.985 28.761-4.491 85.47-4.491 85.47s-1.015 6.137-11.6 5.267c-8.125-.67-14.3-7.806-14.3-7.806l4.456-65.418-9.3-40.552c1.361-23.052 8.633-27.257 10.469-50.273z" fill="#33211f"/><path data-name="Path 6728" d="M121.948 478.503s5.545-41.873 17.684-69.187c1.012-20.738-6.727-44.515-2.007-65.073 5.9-25.687 15.142-24.981 15.142-24.981-.564-4.317 8.905-3.583 18.767-1.7-.019 17.207-.129 34.412-.016 51.616l-.2-1.018s-1.4 34.18-6.679 52.792c-6.975 24.579-11.869 67.348-11.869 67.348s-13.789 4.923-23.232.2-7.59-9.997-7.59-9.997z" fill="#33211f"/><path data-name="Path 6729" d="M177.914 246.875a5.961 5.961 0 00-2.735 2.571l-21.708.4s-17.642 3.641-21.8 17.307a120.187 120.187 0 00.886 18.776c.638.393 4.762-.271 5.065.609 5.519 16.067 4.781 35.694 3.624 51.844 2.014 4.108 44.422 4.153 52.827-.548-4.626-31.614 8.951-68.11-16.159-90.959z" fill="#dcddf3"/><path data-name="Path 6730" d="M174.691 270.078s-1.244 10.223-1.969 12.423-.944 2.858-.944 2.858l7.916 9.124 4.385-10.261s-5.59-13.519-6.682-15.168-2.706 1.024-2.706 1.024z" fill="#6669ca"/><path data-name="Path 6731" d="M194.077 278.732c-2.79-24.74-15.4-35.887-15.4-35.887l-5.934 3.509s7.023 15.484 7.7 22.456a66.081 66.081 0 01-2.043 22.436s-8.357-21.789-17.339-30.9c-8.293-8.406-9.875-10.648-9.875-10.648l-8.054 4.227s10.993 15.97 9.417 33.844c-1.363 15.474-11.85 15.667-11.85 15.667l-5.406 42.55s13.222 8.821 24.044 9.569c2.864.2 12.967.271 16.2-.293 0-4.146 2.4-12.842 2.4-12.842s2.961 6.943 2.961 11.492a22.03 22.03 0 0016.185-11.496s-3.006-20.539-3.006-31.631c0-17.162.512-27.51 0-32.053z" fill="#472e2e"/><g data-name="Group 6449"><path data-name="Path 6732" d="M172.74 246.353l-16.486-11.976-3.486 19.369a30.491 30.491 0 008.293 6.6 85.067 85.067 0 0013.631 5.554c1.894-3.386 0-8.174 0-8.174z" fill="#a5a7e0"/><path data-name="Path 6733" d="M154.324 213.085c-3.647 4.646-4.778 16.292.242 24.489 4.462 7.281 14.64 11.4 19.16 12.13 8.074 1.3 16.782-20.993 7.565-34.634-8.787-13.003-22.276-7.967-26.967-1.985z" fill="#c2c3ea"/><path data-name="Path 6734" d="M162.079 203.213a16.368 16.368 0 00-10.619 7.049c-8.225 1.749-7.384 13.6-5.345 18.074 3.943 8.644 8.451 9.237 8.451 9.237s-1.176-4.717-.135-6.769c.889-1.753 3.689-2.055 4.633 1.063a7.241 7.241 0 002.287.226l-.947-6.231a11.161 11.161 0 0010.136-.709c4.994-2.887 9.855-1.2 11.592.435a12.249 12.249 0 00.815-6.353c3.2-2.242 6.241-4.256 5.777-5.777a9.271 9.271 0 01-7.652-.725 18.225 18.225 0 004.175-4.765c-5.622.726-17.755-5.641-23.168-4.755z" fill="#33211f"/></g><path data-name="Path 6735" d="M173.271 249.446a103.23 103.23 0 011.063 14.662l9.746-4.565-5.322-11.882c-.493.551-3.184 2.661-5.487 1.785z" fill="#a8aae1"/><path data-name="Path 6736" d="M154.401 244.659s-2.893 3.4-3.215 5.039c-1.021 5.206 3.914 12.239 8.077 17.658 4.359-2.284 15.429-2.494 15.429-2.494s-6.241-6.028-9.894-8.931c-8.567-6.803-10.397-11.272-10.397-11.272z" fill="#a8aae1"/><path data-name="Path 6737" d="M173.133 264.056c-1.675.586-2.594.873-2.594.873s1.833 5.474 3.438 6.576c1.063.731 3.173.052 3.85-1.1 1.037-1.766-.922-7.5-.922-7.5a39.106 39.106 0 00-3.772 1.151z" fill="#6669ca"/><g data-name="Group 6451"><path data-name="Path 6738" d="M348.943 333.256v17l-15.732-10.912s11.753-6.371 15.732-6.088z" fill="#4e51c2"/><path data-name="Path 6739" d="M367.213 364.266a9.673 9.673 0 00-1.182-1.691 13.118 13.118 0 00-3.576-3.028s-9.269-5.342-23.918-7.494l-.055-.01 10.461-6.041c-13.367-5.084-89.516-33.812-113.341-37.781-7.716-1.286-23.918.48-39.083 7.21l-8.38 4.839-13.647 7.88-4.047 2.333c-.735.512-1.459 1.018-2.113 1.485-3.963 2.829-6.369 4.758-6.369 4.758s25.748 15.394 46.938 28.335c1.524.928 3.009 1.84 4.475 2.738 2.864-4.739 7.693-9.3 14.482-13.222 21.244-12.265 53.378-13.6 71.774-2.974 7.429 4.288 11.424 9.878 12.217 15.816l2.255-1.3.016.032a26.257 26.257 0 004.646 6.933 40.071 40.071 0 007.755 6.518c.358.226.58.358.58.358a22.549 22.549 0 004.842 1.956c.805.235 1.592.5 2.442.667 8.19 1.643 18.361.248 25.7-3.988a45.379 45.379 0 004.047-3.035c3.835-3.594 4.924-7.717 3.081-11.294z" fill="#4447bf"/><path data-name="Path 6740" d="M368.071 355.287l.019 12.748-7.6-.235s-3.579-13.287-2.758-13.393 10.339.88 10.339.88z" fill="#4447bf"/><g data-name="Group 6450"><path data-name="Path 6741" d="M314.112 332.284c-51.393-29.556-107.317 9.285-107.317 9.285l-38.46-22.35c-3.963 2.826-6.369 4.759-6.369 4.759s25.706 17.475 46.938 28.335c3.289-4.981 8.5-9.759 15.667-13.9 23.941-13.821 60.157-15.323 80.889-3.354 11.434 6.6 15.732 15.922 13.309 25.271a40.067 40.067 0 007.755 6.518c6.845-10.717 7.206-23.285-12.412-34.564z" fill="#696ccb"/><path data-name="Path 6742" d="M350.241 358.547c-4.349-2.449-8.215-4.672-11.263-6.5a15.051 15.051 0 01-4.758-5.039s7.942 4.214 18.854 9.971l12.953-7.153a13.118 13.118 0 00-3.576-3.028s-9.269-5.342-23.918-7.494l-.055-.01 10.461-6.041c-13.364-5.084-89.512-33.814-113.338-37.781-7.716-1.285-23.918.48-39.083 7.21l-8.38 4.839c2.6 1.537 12.71 7.494 16.785 9.681 4.7 2.523-.773 9.646-11.5 6.643a76.352 76.352 0 01-18.928-8.447l-4.047 2.336c-.735.512-1.459 1.018-2.113 1.485l38.465 22.346s55.923-38.841 107.316-9.285c19.617 11.283 19.256 23.851 12.407 34.573.358.226.58.358.58.358a22.549 22.549 0 004.842 1.956 169.723 169.723 0 018.248-5.068zm-95.084-41.051c-4.014.548-6.54 1.366-11.746-1.4-6.94-3.692-28.026-14.6-28.026-14.6s10.294-1.743 13.622-1.585c10.3.5 23.026 5.432 34.621 11.009 7.438 3.576-1.273 5.59-8.471 6.576z" fill="#7577cf"/><path data-name="Path 6743" d="M352.239 359.669l-10.055 5.477a244.994 244.994 0 00-7.8 4.688c8.19 1.643 18.361.248 25.7-3.992.548-.316.966-.67 1.459-1-3.231-1.787-6.35-3.52-9.304-5.173z" fill="#7577cf"/><path data-name="Path 6744" d="M364.134 362.807c3.834-3.589 4.923-7.716 3.08-11.289l-12.056 6.566c2.848 1.501 5.864 3.086 8.976 4.723z" fill="#7577cf"/><path data-name="Path 6745" d="M263.627 310.914c-11.595-5.577-24.318-10.513-34.621-11.009-3.328-.158-13.622 1.585-13.622 1.585s21.086 10.909 28.026 14.6c5.206 2.771 7.732 1.952 11.746 1.4 7.199-.98 15.91-2.994 8.471-6.576z" fill="#c5c6eb"/><path data-name="Path 6746" d="M361.547 364.84a20.764 20.764 0 002.587-2.033c-3.112-1.637-6.128-3.222-8.976-4.723l12.056-6.566a9.672 9.672 0 00-1.182-1.691l-12.958 7.155c-10.912-5.754-18.854-9.968-18.854-9.968a15.051 15.051 0 004.758 5.038c3.048 1.824 6.914 4.047 11.263 6.5l-10.052 5.551a170.21 170.21 0 00-8.248 5.068c.8.235 1.592.493 2.442.667a255.57 255.57 0 017.8-4.688l10.055-5.477c2.955 1.649 6.077 3.379 9.309 5.167z" fill="#696ccb"/><path data-name="Path 6747" d="M193.419 323.846c10.732 3 16.2-4.121 11.5-6.643-4.075-2.188-14.185-8.145-16.785-9.681l-13.647 7.877a76.35 76.35 0 0018.932 8.447z" fill="#696ccb"/><path data-name="Path 6748" d="M305.456 335.064c-20.732-11.969-56.948-10.467-80.888 3.354-7.168 4.137-12.378 8.915-15.667 13.9 1.524.928 3.009 1.84 4.475 2.739 2.864-4.739 7.694-9.3 14.482-13.222 21.244-12.265 53.378-13.6 71.774-2.974 7.429 4.288 11.424 9.875 12.217 15.816l2.255-1.3.016.032a26.256 26.256 0 004.646 6.933c2.422-9.356-1.876-18.677-13.31-25.278z" fill="#5c5fc7"/></g><path data-name="Path 6749" d="M161.962 323.978v12.749l51.412 31.073v-12.75z" fill="#4e51c2"/><path data-name="Path 6750" d="M311.848 367.419v-12.748l2.271-1.269-.016 12.716z" fill="#4e51c2"/></g><path data-name="Path 6751" d="M131.878 322.368c2.258-6.392 5.805-12.342 11.218-15.2a36.1 36.1 0 001.643-10.651c0-9.4 2.88-13.776 1.927-20.661-1.157-8.373-5.426-16.589-8.451-18.454-7.346 4.5-11.547 8.006-11.276 20.745s-2.716 30.172.544 37.253c1.109 2.406 1.924 5.234 4.395 6.968z" fill="#c2c3ea"/><path data-name="Path 6752" d="M139.819 256.106s4.017 2.236 6.846 13.651.9 26.76.9 26.76a27.873 27.873 0 01-13.834 2.5c-7.574-.838-7.787-2.5-9.511-4.871 0 0 .406-20.883 1.724-26.786 1.81-8.093 13.875-11.254 13.875-11.254z" fill="#a8aae1"/><path data-name="Path 6753" d="M138.06 302.673s1.975-.161 5.036 4.494 19.185 24.82 23.09 26.354 2.581.11 8.148-3.028 4.34.867 1.827 2.751c-2.726 2.046-2.89 6.34-1.469 7.88 2.365 2.561 9.388 8.889 9.388 8.889s-3.918 5.409-13.541 0c-3.19-1.791-7.945-7.04-10.831-9.153s-25.239-13.328-29.631-20.3 1.659-16.679 7.983-17.887z" fill="#c2c3ea"/><path data-name="Path 6754" d="M243.395 294.142a51.926 51.926 0 0110.461 5c2.645 1.743 6.066 3.363 7.446 4.9s-.454 2.442-3.325 1.182-9.275-2.739-12.462-5.258-3.821-3.75-3.821-3.75z" fill="#c2c3ea"/><g data-name="Group 6454"><g data-name="Group 6452"><path data-name="Path 6755" d="M172.642 642.481l-13.634-61.2 13.741-8.022a815.115 815.115 0 01-89.052-84.893l-13.741 8.022 13.741 30.3v7.768c-.058-.077-.119-.164-.18-.242-9.2-11.634-18.477-17-18.477-17-3.866-2.233-7.384-2.339-10.071-.735l-.023.013-14.086 8.251 9.859 15.784.97-.86a42.981 42.981 0 002.036 5.074 34.02 34.02 0 008.567 11.344 20.672 20.672 0 002.748 1.956 35.754 35.754 0 003.988 1.869c5.96-4.021 13.954-4 22.771 1.086 18.4 10.622 33.31 39.115 33.31 63.646 0 7.5-1.4 13.734-3.863 18.509q2.194.986 4.414 1.959c10.567 4.63 21.363 9.018 30.078 12.455l-1.769.689 6.286 14.353 13.747-8.022s11.266-18.812 12.384-28.667v-1.456z" fill="#4447bf"/><path data-name="Path 6756" d="M172.748 573.255l-13.741 8.022 13.634 61.2 13.744-8.022v-2.725c-1.217-17.63-13.637-58.475-13.637-58.475z" fill="#4e51c2"/></g><g data-name="Group 6453"><path data-name="Path 6757" d="M78.113 561.895c-12.02-6.94-22.694-5.541-29.566 2.21a20.979 20.979 0 002.748 1.956 35.777 35.777 0 003.989 1.869c5.96-4.021 13.953-4 22.771 1.086 18.4 10.622 33.313 39.115 33.313 63.646 0 7.5-1.408 13.734-3.866 18.509q2.194.986 4.414 1.959c2.371-5.193 3.74-11.734 3.74-19.5 0-27.652-16.808-59.766-37.543-71.735z" fill="#5457c4"/><path data-name="Path 6758" d="M37.068 530.013l1.795.95s1.711-1.65 2.655-2.771c-.783-.438-1.7-.947-2.7-1.5a11.927 11.927 0 00-1.75 3.321z" fill="#696ccb"/><path data-name="Path 6759" d="M124.01 617.235c-5.625-4.124-11.875-45.146-45.9-66.413-19.185-11.995-30.355-6.682-38.129 1.94a34.015 34.015 0 008.563 11.344c6.872-7.752 17.546-9.15 29.566-2.21 20.735 11.969 37.543 44.083 37.543 71.729 0 7.771-1.369 14.311-3.741 19.5 23.548 10.316 48.342 19.476 48.342 19.476s11.267-18.812 12.384-28.667v-1.456c-14.721-7.3-44.421-22.163-48.628-25.243z" fill="#696ccb"/><path data-name="Path 6760" d="M69.771 542.236c-9.2-11.634-18.477-17-18.477-17-5.164-2.983-9.71-2.175-12.481 1.45l2.7 1.5c-.944 1.121-2.655 2.771-2.655 2.771l-1.795-.95a20.226 20.226 0 00-1.082 6.8 37.342 37.342 0 004 15.951c7.774-8.621 18.944-13.934 38.129-1.939 34.022 21.267 40.272 62.289 45.9 66.413 4.2 3.08 33.909 17.942 48.632 25.246v-2.729c-1.218-17.629-13.634-58.475-13.634-58.475a815.114 815.114 0 01-89.048-84.89v46.094c-.066-.078-.127-.165-.189-.242z" fill="#7577cf"/></g></g><g data-name="Group 6455"><path data-name="Path 6761" d="M71.38 516.911c-2.062.551-17.339-.171-22.923 14.478s-13.776 27.768-15.635 35.581c-.86 3.605 0 7.433 2.278 11.531 2.664 4.781 9.014 4.82 19.028-2.761 12.259-9.279 19.427-12.027 21.241-26.538s-3.989-32.291-3.989-32.291z" fill="#6669ca"/><path data-name="Path 6762" d="M130.793 770.294c-2.819-1.762-21.1 3.318-21.1 3.318l-19.711 6.614 1.508 14.846s7.011 7.5 16.724.95c5.789-3.9 16.982-8.924 21.186-14.984 3.048-4.4 4.211-8.978 1.393-10.744z" fill="#472e2e"/><path data-name="Path 6763" d="M82.028 741.514c-2.819-1.766-21.1 3.315-21.1 3.315l-19.713 6.617 1.508 14.846s7.011 7.5 16.724.954c5.789-3.9 16.982-8.924 21.186-14.988 3.054-4.4 4.217-8.982 1.395-10.744z" fill="#472e2e"/><path data-name="Path 6764" d="M56.802 605.688s-9.066 8.889-10.471 27.562c-.635 8.409 3.853 44.26 3.853 44.26s-6.9 18.538-8.609 30.484c-2.03 14.189-1.53 41.893-1.53 41.893 1.169 3.7 5.013 7.194 12.687 6.624 7.9-.586 13.464-10.706 13.464-10.706s2.732-22.978 5.3-38.2c1.463-8.663 3.119-14.4 3.94-21.608.325-8.283 1.17-28.429 1.17-28.429s9.475 37.672 12.474 49.186c-5.847 19.189-.651 71.417-.106 75.573 11.7 9.221 18.912.5 23.748-7.056-.284-11.611 1.566-32.092 2-48.326.341-12.8.132-18.161.341-22.469.409-8.357-3.4-33.5-5.326-52.746-2.245-22.436-2.7-38.664-2.7-38.664z" fill="#33211f"/><path data-name="Path 6765" d="M103.194 550.803c3.969 12.294.419 31.6.68 38.539.451 12.149 5.654 25.017 3.554 32.53-4.166 4.159-15.162 9.3-27.743 8.093-10.252-.983-22.059-6.637-27.987-16.724-.068-1.969 5.342-12.136 4.166-18.454-2.806-15.1-5.032-27.2-5.406-39.811-.261-8.808-.029-13.4 3.67-25.468 1.64-5.342 7.742-7.964 14.933-8.18 5.377.512 6.895 9.018 20.361 9.018 9.442 5.363 10.019 8.833 13.772 20.457z" fill="#888ad6"/><path data-name="Path 6766" d="M64.903 527.892l2.152-12 16.756 3.953s-2.055 6.292 0 11.563c.069.173-12.702-.568-18.908-3.516z" fill="#a5a7e0"/><path data-name="Path 6767" d="M61 490.597c3.441-7.3 16.205-15.713 28.384-4.333 12.771 11.93 7.742 35.952-1.663 37.607-4.788.844-14.324-1.5-20.664-7.983-7.14-7.294-8.728-19.617-6.057-25.291z" fill="#c2c3ea"/><path data-name="Path 6768" d="M96.606 483.442s-2.255 9.582-11.221 13.364c-.925 3.119-.438 4.788 1.289 8.27-.316 1-1.907 1.569-1.907 1.569-2.1-2.99-6.028-4.659-7.481-1.314-1.311 3.016.519 5.177 3.141 8.331 1.946 8.908-10.583 14.292-10.583 14.292a140.6 140.6 0 00-11.105-14.707c-5.332-5.854-7.168-18.68.7-24.559 2.023-9.382 10.757-14.839 19.91-11.353 4.169 1.585 6.576 3.241 9.388 4.42a19.112 19.112 0 007.869 1.687z" fill="#33211f"/><path data-name="Path 6769" d="M77.543 525.773c9.037 1.005 11.879 4.572 11.879 4.572s-9.25 6.692-16.057 3.853c-3.592-1.495-9.221-4.578-10.519-6.244-1.759-2.255 2.059-7.056 2.059-7.056s3.965 3.911 12.638 4.875z" fill="#6669ca"/><path data-name="Path 6770" d="M146.521 585.143c.528-.351 3.673-3.225 8.438-6.717s5.293-3.19 7.755-4.749 2.993 1.608 1.057 3.019-2.993 2.816-2.639 3.869 8.206-2.387 12.32-2.816c3.914-.406 6.495 6.386-.193 11.138s-18.287 4.7-22.336 4.353-4.402-8.097-4.402-8.097z" fill="#c2c3ea"/><path data-name="Path 6771" d="M147.577 580.484h4.662a9.323 9.323 0 014.491 6.54c.7 4.575-1.234 6.353-1.234 6.353l-3.518 2.094z" fill="#fff"/><path data-name="Path 6772" d="M93.947 533.283c-4.365 3.989-10.132 15.02-3.463 31.344 2.4 5.87 4.926 15.158 8.7 20.829 7.639 11.489 9.536 10.883 12.252 12.446 2.2 1.266 12.739 3.75 21.363 2.851 11.737-1.224 15-2.664 19.185-5.28 2.816-3.873 3.212-12.877-4.4-14.988-10.561-1.073-18.493-1.276-23.909-2.564-8.19-13.692-11.044-26.992-15.745-35.433s-10.303-10.32-13.983-9.205z" fill="#6669ca"/></g></g></g></svg>